<svg width="305" height="56" viewBox="0 0 305 56" fill="none" xmlns="http://www.w3.org/2000/svg">
<path d="M12.2886 29.1285C12.7961 29.7932 13.0498 30.5616 13.0498 31.4318C13.0498 32.7595 12.6102 33.7852 11.7329 34.5071C10.8537 35.229 9.59392 35.5899 7.95175 35.5899H0V20.4191H7.73554C9.27764 20.4191 10.4927 20.755 11.379 21.4269C12.2654 22.0988 12.7067 23.0762 12.7067 24.3628C12.7067 25.2491 12.4744 25.9942 12.0098 26.6018C11.5452 27.2093 10.927 27.6132 10.1568 27.8115C11.0699 28.0259 11.7811 28.4655 12.2886 29.1303V29.1285ZM4.75676 26.332H6.59906C7.02792 26.332 7.34599 26.2462 7.55327 26.0746C7.76055 25.9031 7.86419 25.6386 7.86419 25.2813C7.86419 24.9239 7.76055 24.6344 7.55327 24.4557C7.34599 24.277 7.02792 24.1877 6.59906 24.1877H4.75676V26.3302V26.332ZM7.87492 31.5283C8.0822 31.3639 8.18584 31.0959 8.18584 30.7242C8.18584 29.9951 7.76413 29.6306 6.92249 29.6306H4.75854V31.7731H6.92249C7.35135 31.7731 7.66942 31.6909 7.8767 31.5265L7.87492 31.5283Z" fill="#2C3976"/>
<path d="M19.949 24.2108V26.0746H24.6629V29.6538H19.949V31.7963H25.3062V35.5881H15.1923V20.4172H25.3062V24.2091H19.949V24.2108Z" fill="#2C3976"/>
<path d="M29.0873 34.4641C27.908 33.6153 27.27 32.3681 27.17 30.7259H32.2269C32.2984 31.5979 32.6844 32.0321 33.3849 32.0321C33.6422 32.0321 33.8602 31.9714 34.0389 31.8499C34.2176 31.7284 34.3069 31.539 34.3069 31.2816C34.3069 30.9243 34.1139 30.6348 33.7279 30.4132C33.342 30.1916 32.7416 29.9379 31.9285 29.652C30.9564 29.3089 30.1541 28.973 29.518 28.6442C28.8818 28.3154 28.335 27.8365 27.8794 27.2093C27.4219 26.5803 27.2004 25.7744 27.2147 24.788C27.2147 23.8016 27.4684 22.9636 27.9759 22.2703C28.4834 21.5769 29.1749 21.0534 30.0541 20.696C30.9332 20.3386 31.9214 20.1599 33.0221 20.1599C34.8787 20.1599 36.3547 20.5888 37.4465 21.4447C38.5401 22.3024 39.1137 23.5086 39.1709 25.0668H34.0496C34.0353 24.6379 33.9281 24.3306 33.7279 24.1447C33.5278 23.9589 33.2848 23.866 32.9989 23.866C32.7988 23.866 32.6344 23.9339 32.5057 24.0697C32.377 24.2055 32.3127 24.3949 32.3127 24.6379C32.3127 24.981 32.5021 25.2633 32.8809 25.4849C33.2598 25.7065 33.8638 25.9745 34.6911 26.289C35.6471 26.6464 36.4369 26.9895 37.0587 27.3183C37.6806 27.6471 38.2185 28.1045 38.6759 28.6888C39.1334 29.2749 39.3621 30.0094 39.3621 30.8957C39.3621 31.782 39.1334 32.6558 38.6759 33.392C38.2185 34.1282 37.5537 34.7018 36.6835 35.1164C35.8115 35.5309 34.7769 35.7382 33.5761 35.7382C31.7623 35.7382 30.2649 35.3129 29.0873 34.4623V34.4641Z" fill="#2C3976"/>
<path d="M53.4822 20.4172V24.1894H49.4545V35.5881H44.6978V24.1894H40.713V20.4172H53.484H53.4822Z" fill="#2C3976"/>
<path d="M68.2225 20.4172V24.1894H64.1948V35.5881H59.438V24.1894H55.4532V20.4172H68.2242H68.2225Z" fill="#00BE00"/>
<path d="M77.6717 35.5881L74.8215 30.1452H74.8001V35.5881H70.0433V20.4172H77.1141C78.3417 20.4172 79.3924 20.6352 80.2645 21.0712C81.1365 21.5073 81.7887 22.1005 82.2247 22.8492C82.6607 23.5997 82.8787 24.4449 82.8787 25.3884C82.8787 26.4034 82.5964 27.3022 82.0317 28.0884C81.4671 28.8747 80.6576 29.4376 79.5997 29.7806L82.9002 35.5881H77.6717ZM74.8019 26.9752H76.6871C77.1445 26.9752 77.4876 26.8716 77.7163 26.6643C77.9451 26.457 78.0594 26.1318 78.0594 25.6886C78.0594 25.2884 77.9415 24.9739 77.7056 24.7451C77.4697 24.5164 77.1302 24.402 76.6871 24.402H74.8019V26.9734V26.9752Z" fill="#00BE00"/>
<path d="M89.5868 20.4172V28.9676C89.5868 29.668 89.7404 30.2202 90.0478 30.6276C90.3551 31.035 90.8519 31.2387 91.5363 31.2387C92.2207 31.2387 92.7282 31.035 93.0569 30.6276C93.3857 30.2202 93.5501 29.6662 93.5501 28.9676V20.4172H98.2854V28.9676C98.2854 30.4114 97.9852 31.6426 97.3848 32.6629C96.7844 33.685 95.9625 34.4516 94.9207 34.9662C93.8771 35.4808 92.7139 35.7382 91.4273 35.7382C90.1407 35.7382 89.0024 35.4808 88.0089 34.9662C87.0154 34.4516 86.2417 33.6886 85.6841 32.6736C85.1266 31.6586 84.8479 30.4239 84.8479 28.9658V20.4154H89.5832L89.5868 20.4172Z" fill="#00BE00"/>
<path d="M101.361 23.9751C101.968 22.8046 102.835 21.8933 103.964 21.2429C105.092 20.5924 106.421 20.2672 107.949 20.2672C109.262 20.2672 110.438 20.5138 111.475 21.007C112.509 21.5002 113.353 22.1971 114.003 23.0959C114.654 23.9965 115.086 25.0454 115.299 26.2462H110.285C110.056 25.7459 109.731 25.3563 109.309 25.0776C108.887 24.7988 108.405 24.6594 107.863 24.6594C107.063 24.6594 106.432 24.9596 105.967 25.56C105.503 26.1604 105.27 26.9681 105.27 27.9813C105.27 28.9945 105.503 29.8022 105.967 30.4026C106.432 31.003 107.063 31.3032 107.863 31.3032C108.407 31.3032 108.889 31.1638 109.309 30.885C109.731 30.6063 110.056 30.2167 110.285 29.7164H115.299C115.084 30.9154 114.652 31.9661 114.003 32.8667C113.353 33.7673 112.511 34.4624 111.475 34.9556C110.438 35.4488 109.264 35.6954 107.949 35.6954C106.419 35.6954 105.092 35.3702 103.964 34.7197C102.835 34.0693 101.968 33.1598 101.361 31.9876C100.753 30.8171 100.449 29.4805 100.449 27.9813C100.449 26.4821 100.753 25.1455 101.361 23.9751Z" fill="#00BE00"/>
<path d="M126.719 35.5881L122.305 29.0105V35.5881H117.548V20.4172H122.305V26.8019L126.654 20.4172H132.033L126.805 27.681L132.376 35.5881H126.719Z" fill="#00BE00"/>
<path d="M213.829 28.2278C213.386 29.0069 212.732 29.6234 211.869 30.0808C211.004 30.5383 209.958 30.767 208.729 30.767H206.844V35.5881H202.087V20.4172H208.729C210.586 20.4172 212.012 20.889 213.003 21.8325C213.997 22.776 214.492 24.0393 214.492 25.6243C214.492 26.5821 214.27 27.4487 213.827 28.2278H213.829ZM209.673 25.6243C209.673 24.6951 209.179 24.2323 208.195 24.2323H206.846V27.0181H208.195C209.181 27.0181 209.673 26.5535 209.673 25.6261V25.6243Z" fill="#2C3976"/>
<path d="M226.257 33.2955H221.2L220.449 35.5881H215.457L221.007 20.4172H226.493L232.021 35.5881H227.007L226.257 33.2955ZM225.099 29.7181L223.728 25.4974L222.358 29.7181H225.101H225.099Z" fill="#2C3976"/>
<path d="M241.256 35.5881L238.406 30.1452H238.385V35.5881H233.628V20.4172H240.699C241.926 20.4172 242.977 20.6352 243.849 21.0712C244.721 21.5073 245.373 22.1005 245.809 22.8492C246.245 23.5997 246.463 24.4449 246.463 25.3884C246.463 26.4034 246.181 27.3022 245.616 28.0884C245.052 28.8747 244.24 29.4376 243.184 29.7806L246.485 35.5881H241.256ZM238.385 26.9752H240.27C240.727 26.9752 241.07 26.8716 241.299 26.6643C241.528 26.457 241.642 26.1318 241.642 25.6886C241.642 25.2884 241.524 24.9739 241.288 24.7451C241.052 24.5164 240.713 24.402 240.27 24.402H238.385V26.9734V26.9752Z" fill="#2C3976"/>
<path d="M257.69 35.5881L253.277 29.0105V35.5881H248.52V20.4172H253.277V26.8019L257.626 20.4172H263.005L257.776 27.681L263.348 35.5881H257.69Z" fill="#2C3976"/>
<path d="M269.99 20.4172V35.5881H265.233V20.4172H269.99Z" fill="#2C3976"/>
<path d="M287.217 35.5881H282.461L277.425 27.9598V35.5881H272.668V20.4172H277.425L282.461 28.1742V20.4172H287.217V35.5881Z" fill="#2C3976"/>
<path d="M299.195 25.6028C299.009 25.3026 298.745 25.0704 298.402 24.906C298.059 24.7416 297.644 24.6594 297.16 24.6594C296.245 24.6594 295.539 24.956 295.039 25.5492C294.538 26.1425 294.288 26.952 294.288 27.9812C294.288 29.1677 294.567 30.0523 295.124 30.6384C295.682 31.2245 296.54 31.5175 297.696 31.5175C298.852 31.5175 299.681 31.0744 300.353 30.1898H296.561V26.8251H304.297V31.5819C303.639 32.7112 302.733 33.6779 301.575 34.4856C300.417 35.2933 298.954 35.6971 297.183 35.6971C295.612 35.6971 294.244 35.3719 293.08 34.7215C291.915 34.071 291.024 33.1615 290.402 31.9893C289.78 30.8188 289.469 29.4822 289.469 27.983C289.469 26.4838 289.78 25.1472 290.402 23.9768C291.024 22.8063 291.912 21.895 293.07 21.2446C294.226 20.5941 295.584 20.2689 297.14 20.2689C299.125 20.2689 300.743 20.7478 301.993 21.7038C303.242 22.6616 303.982 23.9607 304.211 25.6028H299.197H299.195Z" fill="#2C3976"/>
<path d="M167.387 54.1881C140.862 44.9605 141.691 33.8513 142.424 24.0447C142.828 18.6358 143.244 13.066 138.5 9.07579C141.822 6.97795 145.976 5.22678 150.665 3.9545C155.91 2.53212 161.596 1.75303 167.11 1.70121L167.435 1.69763L167.666 1.70121C173.178 1.75303 178.866 2.53212 184.111 3.9545C188.8 5.22499 192.954 6.97795 196.276 9.07579C191.532 13.0642 191.948 18.6358 192.352 24.0447C193.085 33.8531 193.912 44.9605 167.389 54.1881H167.387Z" fill="#00BE00"/>
<path d="M167.351 3.39692C167.351 3.39692 167.366 3.39692 167.373 3.39692H167.387H167.401H167.65C173.021 3.45052 178.559 4.20817 183.666 5.59303C187.356 6.5937 190.694 7.89636 193.522 9.42953C192.256 10.943 191.391 12.6996 190.905 14.7277C190.179 17.7601 190.411 20.8729 190.658 24.1698C191.01 28.8854 191.375 33.7637 188.689 38.3936C187.199 40.9631 184.913 43.2861 181.702 45.4965C178.087 47.9839 173.275 50.2997 167.387 52.3886C161.499 50.3015 156.687 47.9857 153.072 45.4965C149.861 43.2861 147.576 40.9631 146.085 38.3936C144.886 36.3261 144.216 34.1389 143.975 31.5122C143.752 29.073 143.937 26.5803 144.116 24.1698C144.363 20.8729 144.595 17.7601 143.87 14.7277C143.385 12.6996 142.519 10.9413 141.252 9.42953C144.08 7.89636 147.417 6.5937 151.108 5.59303C156.215 4.20817 161.753 3.45052 167.124 3.40049H167.351M167.682 0C167.584 0 167.485 0.00178691 167.387 0.00178691C167.289 0.00178691 167.191 0 167.092 0V0.00536073C156.206 0.107215 143.509 3.04668 135.518 9.07036C151.652 18.3248 122.041 40.4539 167.342 55.9696V56C167.357 55.9946 167.371 55.9893 167.387 55.9839C167.401 55.9893 167.416 55.9946 167.432 56V55.9696C212.734 40.4521 183.123 18.3248 199.257 9.07036C191.266 3.0449 178.568 0.107215 167.682 0.00536073V0Z" fill="white"/>
<path d="M167.323 1.392C167.342 1.392 167.36 1.392 167.38 1.392H167.392C167.392 1.392 167.4 1.392 167.405 1.392H167.668C173.207 1.44561 178.92 2.22828 184.189 3.65781C189.078 4.98369 193.394 6.83136 196.801 9.04713C194.752 10.6607 193.455 12.6871 192.854 15.1959C192.202 17.9245 192.423 20.8854 192.658 24.0214C193.033 29.0427 193.421 34.2336 190.424 39.4014C186.947 45.4 179.408 50.3462 167.387 54.5151C155.367 50.3462 147.829 45.4 144.35 39.4014C141.354 34.2336 141.741 29.0427 142.117 24.0214C142.351 20.8854 142.572 17.9245 141.92 15.1959C141.32 12.6889 140.022 10.6625 137.973 9.04713C141.38 6.83136 145.696 4.98369 150.585 3.65781C155.854 2.23006 161.567 1.4474 167.107 1.39379L167.325 1.39022M167.682 0C167.584 0 167.485 0.00178691 167.387 0.00178691C167.289 0.00178691 167.191 0 167.092 0V0.00536073C156.206 0.107215 143.509 3.04668 135.518 9.07036C151.652 18.3248 122.041 40.4539 167.342 55.9696V56C167.357 55.9946 167.371 55.9893 167.387 55.9839C167.401 55.9893 167.416 55.9946 167.432 56V55.9696C212.734 40.4521 183.123 18.3248 199.257 9.07036C191.266 3.0449 178.568 0.107215 167.682 0.00536073V0Z" fill="#2C3976"/>
<path d="M141.468 12.2671L155.011 6.08081L156.664 6.15407L179.729 13.861L182.592 22.8653L187.109 23.9946L188.033 32.62L195.224 33.6278L195.265 34.6088L188.546 41.551L180.167 44.3707L162.003 44.4226L145.874 41.0846L142.974 31.2459L143.205 22.6044L141.468 12.2671Z" fill="white"/>
<path d="M157.103 21.0105C157.103 20.4423 157.114 19.9277 157.102 19.4148C157.08 18.5839 157.027 17.7548 157.028 16.9239C157.028 16.7577 157.189 16.495 157.336 16.4414C158.42 16.0411 159.519 15.6838 160.693 15.2853C160.974 17.2116 161.249 19.1093 161.524 21.0105H157.103Z" fill="#2C3976"/>
<path d="M177.975 45.4858C174.587 47.3156 170.773 48.6237 166.973 49.6208C166.973 49.6208 166.933 52.8658 166.933 52.8676C172.162 51.2754 177.547 49.0883 181.949 45.9111C181.934 45.9093 181.92 45.9058 181.909 45.904C180.603 45.6467 179.29 45.5234 177.975 45.4876V45.4858Z" fill="#2C3976"/>
<path d="M192.552 9.82087C191.14 11.4773 190.347 13.6145 190.043 15.7427C189.452 19.8865 189.857 24.0411 189.468 28.1349C190.124 28.4494 190.754 28.78 191.35 29.1481C191.877 23.6641 190.426 18.0264 192.197 12.7729C192.591 11.7758 193.176 10.8787 193.883 10.0746C194.16 9.80837 194.085 9.32054 193.733 9.15793C184.47 4.49409 177.194 2.74292 166.939 2.74292L166.944 3.79184C176.708 3.81685 184.05 5.18384 192.552 9.82087Z" fill="#2C3976"/>
<path d="M189.15 30.6777C189.103 30.9619 189.052 31.2442 188.994 31.5212C189.021 31.5212 189.05 31.5229 189.077 31.5247C189.102 31.2424 189.125 30.9619 189.15 30.6795V30.6777Z" fill="#2C3976"/>
<path d="M140.675 10.1836C140.894 10.0603 141.114 9.94056 141.334 9.82083C141.171 9.62963 141.003 9.44558 140.825 9.26868L140.675 10.1836Z" fill="#2C3976"/>
<path d="M195.265 34.6089L191.194 34.5982L188.987 36.4244L174.889 36.562L172.891 34.8001H166.022C166.022 34.8001 166.231 37.2804 166.372 38.7599C166.413 39.1816 166.569 39.3032 166.971 39.3425C168.415 39.4872 172.426 40.1448 172.426 40.1448L185.044 39.5158C185.044 39.5158 184.847 40.6952 185.492 41.9835C183.616 41.9656 169.072 41.8013 169.072 41.8013L169.176 40.8453C169.176 40.8453 167.078 40.52 166.029 40.3699C165.861 40.3467 165.597 40.1519 165.586 40.0018C165.075 33.2562 164.373 30.231 163.39 29.8004C162.702 29.4984 161.992 30.097 161.371 30.7224C159.596 32.5129 159.289 38.0076 159.289 38.0076L156.703 37.8307V32.4271L159.596 32.5147L159.789 31.3782H158.828V28.6389L157.125 28.512L157.116 31.4282H156.664C156.664 31.4282 156.66 16.9167 156.662 9.98709C156.662 9.78517 156.685 9.58146 156.696 9.38848C158.588 9.27054 160.541 10.6482 161.094 12.5156C161.226 12.9641 161.405 13.0677 161.837 13.0856C166.034 13.2518 179.724 13.8593 179.724 13.8593L178.098 12.051C178.098 12.051 178.082 7.71414 178.082 5.71995V5.07666C177.53 5.02841 177.056 4.98732 176.515 4.94086V11.0199C174.051 9.58682 171.44 9.17762 168.697 9.20264V7.32102C164.675 6.92969 160.695 6.54372 156.659 6.15238C156.659 5.88435 156.659 5.67528 156.659 5.46799C156.659 5.21425 156.659 4.82292 156.659 4.512C159.866 4.00988 163.225 3.80795 166.939 3.79723L166.933 2.74296C163.17 2.74296 159.83 2.97525 156.659 3.49167C156.659 2.88591 156.659 2.13541 156.659 1.57789C156.659 0.684434 156.464 0.477153 155.479 0.382446V3.69895C150.37 4.66031 145.628 6.40076 140.149 9.15975C139.797 9.32236 139.722 9.8084 139.999 10.0747C140.289 10.4034 140.576 10.7787 140.821 11.1414C137.111 12.646 134.034 13.8897 134.034 13.8897C134.034 13.8897 137.422 13.1464 141.463 12.2672C141.877 12.1761 142.299 12.0849 142.724 11.992C146.216 11.2326 149.97 10.4231 152.357 9.92098C152.284 12.8819 152.22 15.7427 152.125 18.6036C152.12 18.7447 151.868 18.9663 151.7 19.0003C150.143 19.3166 147.152 19.8794 144.175 20.4316C143.639 20.5317 143.105 20.6299 142.578 20.7264C138.941 21.3983 135.732 21.9826 135.732 21.9826C135.732 21.9826 138.881 21.6985 142.56 21.3644C143.094 21.3161 143.641 21.2661 144.189 21.216C147.166 20.9462 150.235 20.6657 152.114 20.4923C152.03 23.9018 151.87 30.5169 151.87 30.5169L144.842 31.3014L142.792 31.5301L137.674 32.1019L142.915 32.2359H142.928C145.145 43.724 156.403 49.6029 166.971 52.9587V49.7119C162.171 48.3914 157.35 46.5723 153.405 43.8348C155.983 44.4048 159.73 45.4751 164.551 46.3025C178.016 48.6147 196.217 45.686 191.396 43.0503C192.917 40.8113 192.713 38.919 192.713 38.919L195.065 38.6652L195.259 34.6089H195.265ZM141.977 10.6751C141.977 10.6751 141.972 10.6768 141.97 10.6786C141.777 10.3945 141.554 10.08 141.334 9.8227C146.212 7.16377 150.701 5.58414 155.484 4.71392V37.7003L153.857 37.5466L153.817 32.4307H154.981V31.4336C154.736 31.4104 154.221 31.4336 154.221 31.4336C154.221 31.4336 154.364 17.3081 154.432 10.768C154.436 10.3606 154.387 9.94957 154.868 9.73871C154.943 9.70655 155.002 9.55109 155.004 9.45281C155.013 8.31454 155.009 7.17628 155.009 6.08448C153.923 5.55198 145.832 9.11508 141.975 10.6786L141.977 10.6751ZM152.4 34.2373L145.562 33.9531C145.388 33.4546 145.233 32.8345 145.099 32.2913L152.445 32.4807M163.813 41.3367C163.299 43.6793 161.646 45.434 160.506 41.2402C159.107 41.2402 150.706 40.1912 149.073 39.9929C148.703 39.5658 148.351 39.1227 148.021 38.6634C149.155 38.7724 159.703 39.6981 160.248 39.6981C160.132 36.9766 160.543 34.9324 161.078 33.8656C161.612 32.7988 162.505 32.7916 163.295 34.3302C164.085 35.8687 164.328 38.994 163.813 41.3367Z" fill="#2C3976"/>
<path d="M191.348 29.1481C190.753 28.78 190.122 28.4476 189.466 28.1349C189.425 28.5691 189.377 29.0016 189.316 29.434C189.271 29.8575 189.216 30.272 189.15 30.6777C189.125 30.96 189.102 31.2423 189.077 31.5229C189.05 31.5229 189.021 31.5211 188.994 31.5193C188.971 31.5193 188.948 31.5193 188.925 31.5175C188.91 31.4335 188.887 31.3496 188.884 31.2656C188.803 28.8675 188.719 26.4695 188.65 24.0697C188.619 23.0029 188.053 22.6795 186.993 22.4901C185.721 22.2631 184.929 22.1863 183.643 22.1756C178.226 22.1255 172.81 22.1756 167.394 22.1756C167.685 22.2917 167.982 22.3203 168.281 22.3721C169.823 22.6437 171.363 22.9171 172.905 23.1834C173.416 23.2709 173.586 23.5479 173.572 24.0679C173.525 25.7708 173.525 27.4737 173.507 29.1767C173.505 29.4376 173.507 29.6985 173.507 29.954C172.753 29.4751 172.076 28.9569 171.325 28.5906C170.566 28.2207 169.749 27.9526 168.933 27.7275C167.344 27.2879 165.732 27.161 164.119 27.6185C163.191 27.8812 162.375 28.319 161.792 29.1713C164.076 27.9294 165.262 28.9211 165.911 33.6457C167.516 33.6457 173.195 33.6493 173.195 33.6493L174.978 34.4034L188.212 34.2765L189.086 34.2676L190.624 33.6493C190.624 33.6493 190.633 33.6493 190.644 33.6493C190.908 33.6493 194.048 33.6297 195.22 33.6297C194.412 31.5247 193.024 30.1881 191.346 29.1499L191.348 29.1481ZM186.359 32.5003H176.697C176.386 32.5003 176.132 32.2484 176.132 31.9357L176.116 24.763C176.116 24.4503 176.368 24.1966 176.681 24.1966H186.359C186.671 24.1966 186.923 24.4503 186.923 24.7612V31.9339C186.923 32.2466 186.67 32.4985 186.359 32.4985V32.5003Z" fill="#2C3976"/>
<path d="M179.794 15.757L162.294 15.2013L163.395 21.0874H181.355L179.794 15.757Z" fill="#2C3976"/>
<path d="M157.336 16.4414C157.189 16.495 157.03 16.7577 157.028 16.9239C157.025 17.7548 157.08 18.5839 157.102 19.4148C157.114 19.9277 157.103 20.4423 157.103 21.0105H161.524C161.247 19.1093 160.972 17.2116 160.693 15.2853C159.519 15.6838 158.42 16.0411 157.336 16.4414Z" fill="#2C3976"/>
<path d="M177.571 24.7576H176.738V31.8445H177.571V24.7576Z" fill="#2C3976"/>
<path d="M179.025 24.7576H178.193V31.8445H179.025V24.7576Z" fill="#2C3976"/>
<path d="M180.478 24.7576H179.645V31.8445H180.478V24.7576Z" fill="#2C3976"/>
<path d="M181.933 24.7576H181.1V31.8445H181.933V24.7576Z" fill="#2C3976"/>
<path d="M183.387 24.7576H182.554V31.8445H183.387V24.7576Z" fill="#2C3976"/>
<path d="M184.842 24.7576H184.009V31.8445H184.842V24.7576Z" fill="#2C3976"/>
<path d="M186.296 24.7576H185.464V31.8445H186.296V24.7576Z" fill="#2C3976"/>
</svg>
