<svg width="261" height="68" viewBox="0 0 261 68" fill="none" xmlns="http://www.w3.org/2000/svg">
<path d="M3.712 36C2.85867 36 2.432 35.5733 2.432 34.72V14.88C2.432 14.0267 2.85867 13.6 3.712 13.6H10.048C12.7573 13.6 14.688 14.1227 15.84 15.168C17.0133 16.2133 17.6 17.5787 17.6 19.264C17.6 19.9893 17.44 20.672 17.12 21.312C16.8213 21.952 16.4053 22.5173 15.872 23.008C15.36 23.4773 14.784 23.8507 14.144 24.128L14.176 24.256C14.688 24.3627 15.1573 24.5333 15.584 24.768C16.032 25.0027 16.4373 25.2907 16.8 25.632C17.1627 25.952 17.4613 26.3253 17.696 26.752C17.952 27.1573 18.144 27.5947 18.272 28.064C18.4213 28.5333 18.496 29.0133 18.496 29.504C18.496 31.5733 17.8347 33.1733 16.512 34.304C15.2107 35.4347 13.2053 36 10.496 36H3.712ZM7.36 31.808H10.496C11.4347 31.808 12.16 31.584 12.672 31.136C13.184 30.688 13.44 30.048 13.44 29.216C13.44 28.384 13.1413 27.7653 12.544 27.36C11.9467 26.9333 11.0933 26.72 9.984 26.72H7.36V31.808ZM7.36 22.528H9.568C10.528 22.528 11.264 22.2933 11.776 21.824C12.288 21.3547 12.544 20.7893 12.544 20.128C12.544 19.3387 12.2987 18.752 11.808 18.368C11.3387 17.9627 10.6133 17.76 9.632 17.76H7.36V22.528ZM28.6648 36.256C25.7634 36.256 23.6408 35.488 22.2968 33.952C20.9741 32.3947 20.3128 30.3253 20.3128 27.744C20.3128 25.632 20.6434 23.936 21.3048 22.656C21.9661 21.376 22.8834 20.448 24.0568 19.872C25.2301 19.296 26.5741 19.008 28.0888 19.008C29.7741 19.008 31.1181 19.392 32.1208 20.16C33.1234 20.9067 33.8488 21.9093 34.2968 23.168C34.7661 24.4053 35.0008 25.7707 35.0008 27.264C35.0008 27.4347 34.8941 27.68 34.6808 28C34.4674 28.2987 34.2328 28.5653 33.9768 28.8C33.7208 29.0347 33.5181 29.152 33.3688 29.152H25.2088C25.3154 30.432 25.6888 31.3173 26.3288 31.808C26.9901 32.2773 27.8434 32.512 28.8888 32.512C29.5714 32.512 30.1688 32.4267 30.6808 32.256C31.2141 32.0853 31.6514 31.9253 31.9928 31.776C32.3554 31.6053 32.6114 31.52 32.7608 31.52C32.9954 31.52 33.2408 31.68 33.4968 32C33.7528 32.32 33.9661 32.672 34.1368 33.056C34.3288 33.44 34.4248 33.7387 34.4248 33.952C34.4248 34.3573 34.2114 34.7093 33.7848 35.008C33.3794 35.2853 32.8568 35.52 32.2168 35.712C31.5981 35.904 30.9581 36.0427 30.2968 36.128C29.6568 36.2133 29.1128 36.256 28.6648 36.256ZM25.2088 25.984H30.3928C30.3928 25.0453 30.2114 24.2773 29.8488 23.68C29.4861 23.0613 28.8994 22.752 28.0888 22.752C27.4274 22.752 26.8301 22.9867 26.2968 23.456C25.7634 23.904 25.4008 24.7467 25.2088 25.984ZM42.4268 36.256C41.6374 36.256 40.8268 36.1707 39.9948 36C39.1841 35.8293 38.5014 35.584 37.9468 35.264C37.3921 34.9227 37.1148 34.528 37.1148 34.08C37.1148 33.8027 37.2108 33.472 37.4028 33.088C37.5948 32.704 37.8188 32.3627 38.0748 32.064C38.3521 31.7653 38.5974 31.616 38.8108 31.616C38.9814 31.616 39.2054 31.6907 39.4828 31.84C39.7814 31.9893 40.1441 32.1387 40.5708 32.288C40.9974 32.4373 41.4881 32.512 42.0428 32.512C43.3441 32.512 43.9948 32.064 43.9948 31.168C43.9948 30.6773 43.7494 30.304 43.2588 30.048C42.7681 29.792 42.1494 29.504 41.4028 29.184C40.8908 28.9493 40.3254 28.6613 39.7068 28.32C39.1094 27.9787 38.5868 27.488 38.1388 26.848C37.7121 26.208 37.4988 25.344 37.4988 24.256C37.4988 23.1467 37.7334 22.208 38.2028 21.44C38.6934 20.6507 39.3761 20.0533 40.2508 19.648C41.1254 19.2213 42.1494 19.008 43.3228 19.008C43.9414 19.008 44.6241 19.072 45.3708 19.2C46.1174 19.3067 46.7574 19.4987 47.2908 19.776C47.8454 20.0533 48.1228 20.416 48.1228 20.864C48.1228 21.0987 48.0481 21.4187 47.8988 21.824C47.7494 22.2293 47.5681 22.592 47.3548 22.912C47.1628 23.232 46.9601 23.392 46.7468 23.392C46.5761 23.392 46.2561 23.2853 45.7868 23.072C45.3174 22.8373 44.6881 22.72 43.8988 22.72C43.3654 22.72 42.9494 22.816 42.6508 23.008C42.3521 23.1787 42.2028 23.4773 42.2028 23.904C42.2028 24.4373 42.4481 24.832 42.9388 25.088C43.4294 25.3227 44.0694 25.5893 44.8588 25.888C45.3921 26.08 45.9468 26.3467 46.5228 26.688C47.1201 27.0293 47.6321 27.5307 48.0588 28.192C48.4854 28.832 48.6988 29.696 48.6988 30.784C48.6988 31.872 48.4534 32.832 47.9628 33.664C47.4721 34.4747 46.7574 35.1147 45.8188 35.584C44.9014 36.032 43.7708 36.256 42.4268 36.256ZM56.5735 36.256C55.8268 36.256 55.1548 36.16 54.5575 35.968C53.9815 35.7547 53.4908 35.4347 53.0855 35.008C52.7015 34.5813 52.4028 34.048 52.1895 33.408C51.9975 32.7467 51.9015 31.968 51.9015 31.072V23.008H51.3895C50.7495 23.008 50.4295 22.4747 50.4295 21.408V20.864C50.4295 19.7973 50.7495 19.264 51.3895 19.264H51.9015L52.3175 16.224C52.4242 15.5413 53.0002 15.2 54.0455 15.2H55.0375C56.1042 15.2 56.6375 15.5413 56.6375 16.224V19.264H58.2055C58.8455 19.264 59.1655 19.7973 59.1655 20.864V21.408C59.1655 22.4747 58.8455 23.008 58.2055 23.008H56.6375V31.136C56.6375 31.6053 56.7228 31.9573 56.8935 32.192C57.0855 32.4053 57.3842 32.512 57.7895 32.512C57.9388 32.512 58.0988 32.4907 58.2695 32.448C58.4402 32.4053 58.5682 32.384 58.6535 32.384C58.8668 32.384 59.0482 32.5653 59.1975 32.928C59.3468 33.2693 59.4535 33.632 59.5175 34.016C59.6028 34.3787 59.6455 34.6027 59.6455 34.688C59.6455 35.1787 59.4535 35.5413 59.0695 35.776C58.7068 35.9893 58.2802 36.1173 57.7895 36.16C57.3202 36.224 56.9148 36.256 56.5735 36.256ZM76.2865 36.064C75.0065 36.064 74.3665 35.7227 74.3665 35.04V17.792H69.2785C68.6385 17.792 68.3185 17.2587 68.3185 16.192V15.2C68.3185 14.1333 68.6385 13.6 69.2785 13.6H84.4145C85.0545 13.6 85.3745 14.1333 85.3745 15.2V16.192C85.3745 17.2587 85.0545 17.792 84.4145 17.792H79.3265V35.04C79.3265 35.7227 78.6865 36.064 77.4065 36.064H76.2865ZM87.279 36.064C85.999 36.064 85.359 35.7227 85.359 35.04V24.896C85.359 23.8293 85.327 23.008 85.263 22.432C85.199 21.856 85.135 21.4293 85.071 21.152C85.007 20.8533 84.975 20.5973 84.975 20.384C84.975 20.192 85.1137 20.032 85.391 19.904C85.6897 19.776 86.0417 19.6693 86.447 19.584C86.8737 19.4987 87.279 19.4453 87.663 19.424C88.0683 19.3813 88.367 19.36 88.559 19.36C88.9003 19.36 89.1457 19.4773 89.295 19.712C89.4657 19.9467 89.583 20.224 89.647 20.544C89.711 20.864 89.775 21.1627 89.839 21.44C90.1803 20.8213 90.6177 20.2667 91.151 19.776C91.6843 19.264 92.4097 19.008 93.327 19.008C94.1163 19.008 94.6177 19.168 94.831 19.488C95.0443 19.808 95.151 20.224 95.151 20.736C95.151 20.928 95.1083 21.248 95.023 21.696C94.959 22.1227 94.8523 22.5173 94.703 22.88C94.5537 23.2427 94.3723 23.424 94.159 23.424C93.9457 23.424 93.7217 23.3813 93.487 23.296C93.2523 23.2107 92.975 23.168 92.655 23.168C92.2283 23.168 91.8443 23.264 91.503 23.456C91.1617 23.6267 90.8737 23.84 90.639 24.096C90.4043 24.3307 90.223 24.5547 90.095 24.768V35.04C90.095 35.7227 89.455 36.064 88.175 36.064H87.279ZM101.686 36.256C100.086 36.256 98.9018 35.84 98.1338 35.008C97.3658 34.1547 96.9818 32.8427 96.9818 31.072V20.224C96.9818 19.5413 97.6218 19.2 98.9018 19.2H99.7977C101.078 19.2 101.718 19.5413 101.718 20.224V30.368C101.718 30.9867 101.856 31.4773 102.134 31.84C102.432 32.1813 102.934 32.352 103.638 32.352C104.299 32.352 104.843 32.1387 105.27 31.712C105.696 31.264 106.006 30.8587 106.198 30.496V20.224C106.198 19.5413 106.838 19.2 108.118 19.2H109.014C110.294 19.2 110.934 19.5413 110.934 20.224V30.368C110.934 31.4773 110.966 32.3307 111.03 32.928C111.094 33.504 111.158 33.9413 111.222 34.24C111.286 34.5173 111.318 34.7733 111.318 35.008C111.318 35.2 111.168 35.36 110.87 35.488C110.592 35.616 110.24 35.7227 109.814 35.808C109.408 35.8933 109.003 35.9573 108.598 36C108.214 36.0213 107.926 36.032 107.734 36.032C107.392 36.032 107.136 35.9147 106.966 35.68C106.816 35.424 106.71 35.1253 106.646 34.784C106.582 34.4213 106.518 34.1013 106.454 33.824C105.984 34.4213 105.334 34.976 104.502 35.488C103.67 36 102.731 36.256 101.686 36.256ZM122.314 36.256C119.584 36.256 117.557 35.552 116.234 34.144C114.912 32.736 114.25 30.6027 114.25 27.744C114.25 26.3147 114.41 25.056 114.73 23.968C115.05 22.88 115.541 21.9733 116.202 21.248C116.885 20.5013 117.738 19.9467 118.762 19.584C119.808 19.2 121.045 19.008 122.474 19.008C123.242 19.008 124.032 19.0933 124.842 19.264C125.674 19.4133 126.368 19.6587 126.922 20C127.498 20.32 127.786 20.7253 127.786 21.216C127.786 21.408 127.68 21.7067 127.466 22.112C127.274 22.496 127.04 22.8587 126.762 23.2C126.506 23.52 126.282 23.68 126.09 23.68C126.026 23.68 125.941 23.6587 125.834 23.616C125.749 23.5733 125.642 23.52 125.514 23.456C125.237 23.3067 124.874 23.1573 124.426 23.008C123.978 22.8373 123.413 22.752 122.73 22.752C121.45 22.752 120.522 23.1573 119.946 23.968C119.392 24.7573 119.114 25.9733 119.114 27.616C119.114 29.2587 119.381 30.4853 119.914 31.296C120.448 32.1067 121.322 32.512 122.538 32.512C123.285 32.512 123.914 32.4267 124.426 32.256C124.938 32.064 125.354 31.904 125.674 31.776C125.802 31.7333 125.909 31.6907 125.994 31.648C126.101 31.6053 126.186 31.584 126.25 31.584C126.485 31.584 126.73 31.744 126.986 32.064C127.242 32.384 127.456 32.736 127.626 33.12C127.818 33.504 127.914 33.8027 127.914 34.016C127.914 34.464 127.68 34.8373 127.21 35.136C126.741 35.4133 126.176 35.6373 125.514 35.808C124.853 35.9787 124.213 36.096 123.594 36.16C122.997 36.224 122.57 36.256 122.314 36.256ZM132.47 36.064C131.19 36.064 130.549 35.7227 130.549 35.04V12.896C130.549 12.2133 131.19 11.872 132.47 11.872H133.366C134.646 11.872 135.286 12.2133 135.286 12.896V25.568L135.414 25.6L139.286 19.808C139.478 19.5307 139.734 19.36 140.054 19.296C140.374 19.232 140.768 19.2 141.238 19.2H142.422C143.616 19.2 144.214 19.36 144.214 19.68C144.214 19.8507 144.118 20.064 143.926 20.32L138.422 28.192L138.486 25.088L144.694 34.912C144.864 35.1893 144.95 35.4133 144.95 35.584C144.95 35.904 144.342 36.064 143.126 36.064H141.782C141.312 36.064 140.907 36.0213 140.566 35.936C140.246 35.8507 140.011 35.6907 139.862 35.456L135.414 28.096L135.286 28.128V35.04C135.286 35.7227 134.646 36.064 133.366 36.064H132.47ZM156.941 36.064C155.661 36.064 155.021 35.7227 155.021 35.04V14.88C155.021 14.0267 155.447 13.6 156.301 13.6H163.021C163.725 13.6 164.514 13.6853 165.389 13.856C166.263 14.0053 167.095 14.3147 167.885 14.784C168.695 15.2533 169.357 15.9573 169.869 16.896C170.381 17.8347 170.637 19.072 170.637 20.608C170.637 21.8453 170.445 22.88 170.061 23.712C169.677 24.544 169.175 25.2267 168.557 25.76C167.959 26.272 167.319 26.6667 166.637 26.944C165.975 27.2 165.346 27.3813 164.749 27.488C164.151 27.5733 163.682 27.616 163.341 27.616H159.949V35.04C159.949 35.7227 159.309 36.064 158.029 36.064H156.941ZM159.949 23.392H162.797C163.095 23.392 163.405 23.36 163.725 23.296C164.066 23.2107 164.375 23.072 164.653 22.88C164.93 22.6667 165.154 22.3787 165.325 22.016C165.495 21.6533 165.581 21.184 165.581 20.608C165.581 19.84 165.431 19.2533 165.133 18.848C164.834 18.4427 164.471 18.1653 164.045 18.016C163.618 17.8667 163.202 17.792 162.797 17.792H159.949V23.392ZM176.518 36.256C174.79 36.256 173.563 35.808 172.838 34.912C172.134 33.9947 171.782 32.8853 171.782 31.584C171.782 30.9227 171.878 30.2507 172.07 29.568C172.283 28.864 172.699 28.2133 173.318 27.616C173.936 27.0187 174.854 26.5387 176.07 26.176C177.307 25.8133 178.939 25.632 180.966 25.632V24.576C180.966 23.9573 180.763 23.4987 180.358 23.2C179.974 22.9013 179.344 22.752 178.47 22.752C177.702 22.752 177.03 22.8373 176.454 23.008C175.899 23.1787 175.44 23.3493 175.078 23.52C174.736 23.6907 174.502 23.776 174.374 23.776C174.16 23.776 173.915 23.616 173.638 23.296C173.382 22.9547 173.158 22.5813 172.966 22.176C172.795 21.7493 172.71 21.4293 172.71 21.216C172.71 20.8533 172.966 20.5013 173.478 20.16C174.011 19.8187 174.736 19.5413 175.654 19.328C176.592 19.1147 177.648 19.008 178.822 19.008C180.507 19.008 181.851 19.2427 182.854 19.712C183.856 20.16 184.582 20.7893 185.03 21.6C185.478 22.3893 185.702 23.3067 185.702 24.352V30.368C185.702 31.4773 185.734 32.3307 185.798 32.928C185.862 33.504 185.926 33.9413 185.99 34.24C186.054 34.5173 186.086 34.7733 186.086 35.008C186.086 35.2 185.936 35.36 185.638 35.488C185.36 35.616 185.008 35.7227 184.582 35.808C184.176 35.8933 183.771 35.9573 183.366 36C182.982 36.0213 182.694 36.032 182.502 36.032C182.16 36.032 181.904 35.9147 181.734 35.68C181.584 35.424 181.478 35.1253 181.414 34.784C181.35 34.4213 181.286 34.1013 181.222 33.824C181.158 33.952 180.934 34.2187 180.55 34.624C180.187 35.008 179.664 35.3813 178.982 35.744C178.32 36.0853 177.499 36.256 176.518 36.256ZM178.086 32.512C178.704 32.512 179.27 32.32 179.782 31.936C180.315 31.552 180.71 31.072 180.966 30.496V28.736C180.198 28.736 179.536 28.7893 178.982 28.896C178.427 29.0027 177.958 29.152 177.574 29.344C177.211 29.536 176.934 29.7813 176.742 30.08C176.571 30.3787 176.486 30.72 176.486 31.104C176.486 31.5093 176.614 31.8507 176.87 32.128C177.147 32.384 177.552 32.512 178.086 32.512ZM191.779 36.064C190.499 36.064 189.859 35.7227 189.859 35.04V24.896C189.859 23.8293 189.827 23.008 189.763 22.432C189.699 21.856 189.635 21.4293 189.571 21.152C189.507 20.8533 189.475 20.5973 189.475 20.384C189.475 20.192 189.614 20.032 189.891 19.904C190.19 19.776 190.542 19.6693 190.947 19.584C191.374 19.4987 191.779 19.4453 192.163 19.424C192.568 19.3813 192.867 19.36 193.059 19.36C193.4 19.36 193.646 19.4773 193.795 19.712C193.966 19.9467 194.083 20.224 194.147 20.544C194.211 20.864 194.275 21.1627 194.339 21.44C194.68 20.8213 195.118 20.2667 195.651 19.776C196.184 19.264 196.91 19.008 197.827 19.008C198.616 19.008 199.118 19.168 199.331 19.488C199.544 19.808 199.651 20.224 199.651 20.736C199.651 20.928 199.608 21.248 199.523 21.696C199.459 22.1227 199.352 22.5173 199.203 22.88C199.054 23.2427 198.872 23.424 198.659 23.424C198.446 23.424 198.222 23.3813 197.987 23.296C197.752 23.2107 197.475 23.168 197.155 23.168C196.728 23.168 196.344 23.264 196.003 23.456C195.662 23.6267 195.374 23.84 195.139 24.096C194.904 24.3307 194.723 24.5547 194.595 24.768V35.04C194.595 35.7227 193.955 36.064 192.675 36.064H191.779ZM203.626 36.064C202.346 36.064 201.706 35.7227 201.706 35.04V12.896C201.706 12.2133 202.346 11.872 203.626 11.872H204.522C205.802 11.872 206.442 12.2133 206.442 12.896V25.568L206.57 25.6L210.442 19.808C210.634 19.5307 210.89 19.36 211.21 19.296C211.53 19.232 211.924 19.2 212.394 19.2H213.578C214.772 19.2 215.37 19.36 215.37 19.68C215.37 19.8507 215.274 20.064 215.082 20.32L209.578 28.192L209.642 25.088L215.85 34.912C216.02 35.1893 216.106 35.4133 216.106 35.584C216.106 35.904 215.498 36.064 214.282 36.064H212.938C212.468 36.064 212.063 36.0213 211.722 35.936C211.402 35.8507 211.167 35.6907 211.018 35.456L206.57 28.096L206.442 28.128V35.04C206.442 35.7227 205.802 36.064 204.522 36.064H203.626ZM220.089 36.064C218.809 36.064 218.169 35.7227 218.169 35.04V20.224C218.169 19.5413 218.809 19.2 220.089 19.2H220.985C222.265 19.2 222.905 19.5413 222.905 20.224V35.04C222.905 35.7227 222.265 36.064 220.985 36.064H220.089ZM220.537 17.632C219.705 17.632 219.097 17.5467 218.713 17.376C218.351 17.2053 218.169 16.9493 218.169 16.608V14.112C218.169 13.7707 218.351 13.5147 218.713 13.344C219.097 13.1733 219.705 13.088 220.537 13.088C221.369 13.088 221.967 13.1733 222.329 13.344C222.713 13.5147 222.905 13.7707 222.905 14.112V16.608C222.905 16.9493 222.713 17.2053 222.329 17.376C221.967 17.5467 221.369 17.632 220.537 17.632ZM228.654 36.064C227.374 36.064 226.734 35.7227 226.734 35.04V24.896C226.734 23.8293 226.702 23.008 226.638 22.432C226.574 21.856 226.51 21.4293 226.446 21.152C226.382 20.8533 226.35 20.5973 226.35 20.384C226.35 20.192 226.489 20.032 226.766 19.904C227.065 19.776 227.417 19.6693 227.822 19.584C228.249 19.4987 228.654 19.4453 229.038 19.424C229.443 19.3813 229.742 19.36 229.934 19.36C230.275 19.36 230.521 19.4773 230.67 19.712C230.841 19.9467 230.958 20.224 231.022 20.544C231.086 20.864 231.15 21.1627 231.214 21.44C231.683 20.8213 232.334 20.2667 233.166 19.776C233.998 19.264 234.937 19.008 235.982 19.008C237.582 19.008 238.766 19.4347 239.534 20.288C240.302 21.12 240.686 22.4213 240.686 24.192V35.04C240.686 35.7227 240.046 36.064 238.766 36.064H237.87C236.59 36.064 235.95 35.7227 235.95 35.04V24.896C235.95 24.2773 235.801 23.7973 235.502 23.456C235.225 23.0933 234.734 22.912 234.03 22.912C233.369 22.912 232.825 23.136 232.398 23.584C231.971 24.0107 231.662 24.4053 231.47 24.768V35.04C231.47 35.7227 230.83 36.064 229.55 36.064H228.654ZM250.947 42.784C249.24 42.784 247.821 42.6133 246.691 42.272C245.56 41.952 244.717 41.4613 244.163 40.8C243.608 40.1387 243.331 39.328 243.331 38.368C243.331 37.536 243.576 36.8 244.067 36.16C244.579 35.52 245.304 35.0187 246.243 34.656L246.275 34.528C245.827 34.2933 245.485 33.9733 245.251 33.568C245.016 33.1413 244.899 32.6613 244.899 32.128C244.899 31.5307 245.069 30.9867 245.411 30.496C245.752 30.0053 246.221 29.5893 246.819 29.248C246.029 28.8213 245.4 28.2453 244.931 27.52C244.461 26.7733 244.227 25.8347 244.227 24.704C244.227 23.3173 244.536 22.208 245.155 21.376C245.773 20.544 246.605 19.9467 247.651 19.584C248.696 19.2 249.848 19.008 251.107 19.008C251.533 19.008 251.949 19.0293 252.355 19.072C252.781 19.1147 253.187 19.1787 253.571 19.264H258.722C259.363 19.264 259.683 19.7973 259.683 20.864V21.408C259.683 22.4107 259.427 22.912 258.915 22.912C258.787 22.912 258.541 22.88 258.179 22.816C257.816 22.752 257.549 22.688 257.379 22.624L257.315 22.752C257.507 22.9653 257.667 23.264 257.795 23.648C257.923 24.0107 257.987 24.3627 257.987 24.704C257.987 25.984 257.699 27.0293 257.123 27.84C256.547 28.6293 255.757 29.216 254.755 29.6C253.773 29.9627 252.675 30.144 251.459 30.144C250.477 30.144 249.859 30.2293 249.603 30.4C249.347 30.5707 249.219 30.8267 249.219 31.168C249.219 31.5307 249.453 31.7973 249.923 31.968C250.413 32.1387 251.043 32.2667 251.811 32.352C252.579 32.4373 253.389 32.5547 254.243 32.704C255.075 32.8533 255.864 33.088 256.611 33.408C257.379 33.728 257.997 34.1973 258.467 34.816C258.957 35.4347 259.203 36.2773 259.203 37.344C259.203 38.432 258.861 39.3813 258.179 40.192C257.496 41.024 256.536 41.664 255.299 42.112C254.061 42.56 252.611 42.784 250.947 42.784ZM251.299 39.04C252.408 39.04 253.229 38.8907 253.763 38.592C254.317 38.3147 254.595 37.9413 254.595 37.472C254.595 37.216 254.509 37.0027 254.339 36.832C254.168 36.6613 253.891 36.512 253.507 36.384C253.123 36.2773 252.611 36.1813 251.97 36.096C251.352 36.0107 250.584 35.936 249.667 35.872C249.112 36.064 248.685 36.32 248.387 36.64C248.088 36.96 247.939 37.28 247.939 37.6C247.939 38.0267 248.205 38.368 248.739 38.624C249.272 38.9013 250.125 39.04 251.299 39.04ZM251.107 26.72C251.768 26.72 252.333 26.56 252.803 26.24C253.272 25.8987 253.507 25.344 253.507 24.576C253.507 23.8293 253.272 23.2853 252.803 22.944C252.333 22.6027 251.768 22.432 251.107 22.432C250.445 22.432 249.88 22.6027 249.411 22.944C248.941 23.2853 248.707 23.8293 248.707 24.576C248.707 25.344 248.941 25.8987 249.411 26.24C249.88 26.56 250.445 26.72 251.107 26.72Z" fill="currentColor"/>
<path d="M128.5 48.024C128.18 48.024 128.02 47.936 128.02 47.76V39.96C128.02 39.72 128.14 39.6 128.38 39.6H130.816C131.072 39.6 131.352 39.628 131.656 39.684C131.968 39.74 132.26 39.852 132.532 40.02C132.812 40.18 133.04 40.416 133.216 40.728C133.4 41.04 133.492 41.448 133.492 41.952C133.492 42.392 133.424 42.76 133.288 43.056C133.152 43.352 132.98 43.592 132.772 43.776C132.564 43.952 132.34 44.088 132.1 44.184C131.868 44.28 131.648 44.344 131.44 44.376C131.232 44.408 131.064 44.424 130.936 44.424H129.076V47.76C129.076 47.936 128.916 48.024 128.596 48.024H128.5ZM129.076 43.512H130.948C131.068 43.512 131.208 43.492 131.368 43.452C131.536 43.412 131.696 43.336 131.848 43.224C132.008 43.112 132.14 42.956 132.244 42.756C132.348 42.548 132.4 42.28 132.4 41.952C132.4 41.552 132.312 41.252 132.136 41.052C131.968 40.844 131.76 40.704 131.512 40.632C131.264 40.552 131.02 40.512 130.78 40.512H129.076V43.512ZM137.053 48.072C136.149 48.072 135.457 47.8 134.977 47.256C134.505 46.712 134.269 45.924 134.269 44.892C134.269 43.852 134.509 43.052 134.989 42.492C135.469 41.932 136.157 41.652 137.053 41.652C137.933 41.652 138.605 41.932 139.069 42.492C139.541 43.044 139.777 43.844 139.777 44.892C139.777 45.932 139.545 46.724 139.081 47.268C138.625 47.804 137.949 48.072 137.053 48.072ZM137.017 47.208C137.609 47.208 138.041 47.02 138.313 46.644C138.593 46.26 138.733 45.668 138.733 44.868C138.733 44.068 138.593 43.476 138.313 43.092C138.041 42.708 137.609 42.516 137.017 42.516C136.433 42.516 136.005 42.708 135.733 43.092C135.461 43.468 135.325 44.06 135.325 44.868C135.325 45.668 135.461 46.26 135.733 46.644C136.005 47.02 136.433 47.208 137.017 47.208ZM142.82 48.024C142.7 48.024 142.592 48.012 142.496 47.988C142.408 47.956 142.356 47.904 142.34 47.832L140.756 42.144C140.748 42.104 140.736 42.06 140.72 42.012C140.704 41.964 140.696 41.928 140.696 41.904C140.696 41.84 140.736 41.792 140.816 41.76C140.904 41.72 141.048 41.7 141.248 41.7C141.368 41.7 141.472 41.716 141.56 41.748C141.656 41.772 141.712 41.82 141.728 41.892L142.736 45.732C142.776 45.86 142.82 46.064 142.868 46.344C142.916 46.624 142.964 46.88 143.012 47.112H143.06C143.1 46.88 143.144 46.632 143.192 46.368C143.248 46.096 143.296 45.88 143.336 45.72L144.332 41.904C144.348 41.824 144.4 41.772 144.488 41.748C144.576 41.716 144.68 41.7 144.8 41.7H144.884C145.004 41.7 145.108 41.716 145.196 41.748C145.284 41.772 145.336 41.824 145.352 41.904L146.36 45.72C146.448 46.04 146.508 46.304 146.54 46.512C146.58 46.72 146.616 46.928 146.648 47.136H146.672C146.712 46.92 146.752 46.68 146.792 46.416C146.84 46.144 146.888 45.92 146.936 45.744L147.944 41.892C147.96 41.82 148.016 41.772 148.112 41.748C148.208 41.716 148.316 41.7 148.436 41.7C148.756 41.7 148.916 41.768 148.916 41.904C148.916 41.928 148.912 41.952 148.904 41.976C148.904 42 148.896 42.032 148.88 42.072L147.272 47.832C147.256 47.904 147.2 47.956 147.104 47.988C147.016 48.012 146.912 48.024 146.792 48.024H146.432C146.312 48.024 146.208 48.012 146.12 47.988C146.032 47.956 145.98 47.904 145.964 47.832L145.004 44.028C144.98 43.924 144.952 43.784 144.92 43.608C144.896 43.432 144.868 43.256 144.836 43.08H144.812C144.78 43.256 144.748 43.432 144.716 43.608C144.692 43.776 144.668 43.912 144.644 44.016L143.66 47.832C143.644 47.904 143.588 47.956 143.492 47.988C143.404 48.012 143.3 48.024 143.18 48.024H142.82ZM152.772 48.072C151.78 48.072 151.04 47.812 150.552 47.292C150.072 46.772 149.832 45.976 149.832 44.904C149.832 44.192 149.936 43.596 150.144 43.116C150.36 42.636 150.676 42.272 151.092 42.024C151.508 41.776 152.02 41.652 152.628 41.652C153.18 41.652 153.636 41.772 153.996 42.012C154.364 42.252 154.64 42.604 154.824 43.068C155.008 43.532 155.1 44.104 155.1 44.784C155.1 44.832 155.076 44.896 155.028 44.976C154.988 45.048 154.936 45.116 154.872 45.18C154.808 45.244 154.752 45.276 154.704 45.276H150.912C150.96 45.94 151.132 46.428 151.428 46.74C151.724 47.052 152.168 47.208 152.76 47.208C153.112 47.208 153.408 47.168 153.648 47.088C153.896 47 154.092 46.916 154.236 46.836C154.38 46.748 154.472 46.704 154.512 46.704C154.568 46.704 154.628 46.744 154.692 46.824C154.756 46.904 154.812 46.992 154.86 47.088C154.908 47.184 154.932 47.256 154.932 47.304C154.932 47.376 154.876 47.456 154.764 47.544C154.652 47.632 154.496 47.716 154.296 47.796C154.104 47.876 153.876 47.944 153.612 48C153.356 48.048 153.076 48.072 152.772 48.072ZM150.912 44.412H154.032C154.032 43.78 153.912 43.308 153.672 42.996C153.432 42.676 153.072 42.516 152.592 42.516C152.072 42.516 151.672 42.676 151.392 42.996C151.112 43.308 150.952 43.78 150.912 44.412ZM157.201 48.024C156.881 48.024 156.721 47.936 156.721 47.76V43.548C156.721 43.22 156.709 42.948 156.685 42.732C156.661 42.516 156.637 42.352 156.613 42.24C156.589 42.12 156.577 42.052 156.577 42.036C156.577 41.98 156.601 41.936 156.649 41.904C156.705 41.864 156.769 41.836 156.841 41.82C156.913 41.796 156.985 41.78 157.057 41.772C157.129 41.764 157.185 41.76 157.225 41.76C157.321 41.76 157.393 41.804 157.441 41.892C157.497 41.98 157.537 42.088 157.561 42.216C157.593 42.336 157.621 42.448 157.645 42.552C157.853 42.264 158.073 42.044 158.305 41.892C158.545 41.732 158.789 41.652 159.037 41.652C159.269 41.652 159.441 41.692 159.553 41.772C159.673 41.844 159.733 41.96 159.733 42.12C159.733 42.192 159.721 42.28 159.697 42.384C159.681 42.488 159.653 42.58 159.613 42.66C159.581 42.732 159.541 42.768 159.493 42.768C159.413 42.768 159.333 42.748 159.253 42.708C159.181 42.66 159.041 42.636 158.833 42.636C158.625 42.636 158.437 42.696 158.269 42.816C158.101 42.936 157.969 43.06 157.873 43.188C157.777 43.308 157.729 43.368 157.729 43.368V47.76C157.729 47.936 157.569 48.024 157.249 48.024H157.201ZM163.401 48.072C162.409 48.072 161.669 47.812 161.181 47.292C160.701 46.772 160.461 45.976 160.461 44.904C160.461 44.192 160.565 43.596 160.773 43.116C160.989 42.636 161.305 42.272 161.721 42.024C162.137 41.776 162.649 41.652 163.257 41.652C163.809 41.652 164.265 41.772 164.625 42.012C164.993 42.252 165.269 42.604 165.453 43.068C165.637 43.532 165.729 44.104 165.729 44.784C165.729 44.832 165.705 44.896 165.657 44.976C165.617 45.048 165.565 45.116 165.501 45.18C165.437 45.244 165.381 45.276 165.333 45.276H161.541C161.589 45.94 161.761 46.428 162.057 46.74C162.353 47.052 162.797 47.208 163.389 47.208C163.741 47.208 164.037 47.168 164.277 47.088C164.525 47 164.721 46.916 164.865 46.836C165.009 46.748 165.101 46.704 165.141 46.704C165.197 46.704 165.257 46.744 165.321 46.824C165.385 46.904 165.441 46.992 165.489 47.088C165.537 47.184 165.561 47.256 165.561 47.304C165.561 47.376 165.505 47.456 165.393 47.544C165.281 47.632 165.125 47.716 164.925 47.796C164.733 47.876 164.505 47.944 164.241 48C163.985 48.048 163.705 48.072 163.401 48.072ZM161.541 44.412H164.661C164.661 43.78 164.541 43.308 164.301 42.996C164.061 42.676 163.701 42.516 163.221 42.516C162.701 42.516 162.301 42.676 162.021 42.996C161.741 43.308 161.581 43.78 161.541 44.412ZM169.104 48.072C168.624 48.072 168.208 47.936 167.856 47.664C167.512 47.384 167.244 47.004 167.052 46.524C166.868 46.036 166.776 45.484 166.776 44.868C166.776 43.82 167.004 43.024 167.46 42.48C167.916 41.928 168.5 41.652 169.212 41.652C169.588 41.652 169.908 41.708 170.172 41.82C170.444 41.932 170.696 42.08 170.928 42.264V39.24C170.928 39.064 171.088 38.976 171.408 38.976H171.456C171.776 38.976 171.936 39.064 171.936 39.24V46.224C171.936 46.552 171.948 46.824 171.972 47.04C171.996 47.256 172.02 47.42 172.044 47.532C172.068 47.644 172.08 47.712 172.08 47.736C172.08 47.792 172.052 47.84 171.996 47.88C171.948 47.912 171.888 47.94 171.816 47.964C171.744 47.98 171.672 47.992 171.6 48C171.528 48.008 171.472 48.012 171.432 48.012C171.336 48.012 171.26 47.968 171.204 47.88C171.156 47.784 171.116 47.672 171.084 47.544C171.06 47.408 171.036 47.284 171.012 47.172C170.716 47.476 170.408 47.704 170.088 47.856C169.776 48 169.448 48.072 169.104 48.072ZM169.308 47.196C169.572 47.196 169.844 47.128 170.124 46.992C170.412 46.848 170.68 46.64 170.928 46.368V43.08C170.712 42.896 170.48 42.76 170.232 42.672C169.984 42.584 169.724 42.54 169.452 42.54C168.916 42.54 168.512 42.736 168.24 43.128C167.968 43.512 167.832 44.06 167.832 44.772C167.832 45.548 167.96 46.148 168.216 46.572C168.472 46.988 168.836 47.196 169.308 47.196ZM179.672 48.072C179.328 48.072 178.996 48 178.676 47.856C178.364 47.704 178.06 47.476 177.764 47.172C177.716 47.484 177.652 47.72 177.572 47.88C177.548 47.936 177.508 47.976 177.452 48C177.404 48.016 177.336 48.024 177.248 48.024H177.2C176.96 48.024 176.84 47.936 176.84 47.76V39.24C176.84 39.064 177 38.976 177.32 38.976H177.368C177.688 38.976 177.848 39.064 177.848 39.24V42.264C178.08 42.08 178.332 41.932 178.604 41.82C178.876 41.708 179.196 41.652 179.564 41.652C180.276 41.652 180.86 41.928 181.316 42.48C181.772 43.024 182 43.816 182 44.856C182 45.48 181.904 46.036 181.712 46.524C181.528 47.004 181.26 47.384 180.908 47.664C180.564 47.936 180.152 48.072 179.672 48.072ZM179.468 47.196C179.94 47.196 180.304 46.988 180.56 46.572C180.816 46.148 180.944 45.548 180.944 44.772C180.944 44.06 180.808 43.512 180.536 43.128C180.272 42.736 179.872 42.54 179.336 42.54C179.08 42.54 178.82 42.584 178.556 42.672C178.3 42.76 178.064 42.896 177.848 43.08V46.368C178.096 46.64 178.36 46.848 178.64 46.992C178.928 47.128 179.204 47.196 179.468 47.196ZM184.215 50.496C183.951 50.496 183.819 50.432 183.819 50.304C183.819 50.288 183.819 50.268 183.819 50.244C183.827 50.228 183.847 50.18 183.879 50.1L185.043 47.28V48.06L182.787 42.06C182.779 42.044 182.771 42.02 182.763 41.988C182.755 41.956 182.751 41.928 182.751 41.904C182.751 41.768 182.923 41.7 183.267 41.7H183.363C183.483 41.7 183.587 41.716 183.675 41.748C183.763 41.772 183.819 41.82 183.843 41.892L185.067 45.144C185.139 45.344 185.207 45.548 185.271 45.756C185.335 45.964 185.395 46.164 185.451 46.356H185.475C185.539 46.172 185.603 45.972 185.667 45.756C185.731 45.532 185.799 45.328 185.871 45.144L187.071 41.892C187.095 41.82 187.151 41.772 187.239 41.748C187.327 41.716 187.435 41.7 187.563 41.7H187.599C187.919 41.7 188.079 41.768 188.079 41.904C188.079 41.944 188.067 42 188.043 42.072L184.959 50.244C184.927 50.332 184.859 50.396 184.755 50.436C184.659 50.476 184.539 50.496 184.395 50.496H184.215ZM192.731 48C192.491 48 192.371 47.88 192.371 47.64V39.96C192.371 39.72 192.491 39.6 192.731 39.6H196.919C197.079 39.6 197.159 39.72 197.159 39.96V40.152C197.159 40.392 197.079 40.512 196.919 40.512H193.427V43.248H196.559C196.719 43.248 196.799 43.368 196.799 43.608V43.8C196.799 44.04 196.719 44.16 196.559 44.16H193.427V47.088H196.931C197.091 47.088 197.171 47.208 197.171 47.448V47.64C197.171 47.88 197.091 48 196.931 48H192.731ZM200.386 48.072C199.802 48.072 199.314 47.928 198.922 47.64C198.53 47.344 198.334 46.888 198.334 46.272C198.334 45.768 198.454 45.372 198.694 45.084C198.934 44.788 199.25 44.572 199.642 44.436C200.034 44.292 200.462 44.2 200.926 44.16C201.398 44.12 201.862 44.096 202.318 44.088V43.524C202.318 43.252 202.222 43.016 202.03 42.816C201.838 42.616 201.494 42.516 200.998 42.516C200.638 42.516 200.322 42.56 200.05 42.648C199.786 42.728 199.574 42.812 199.414 42.9C199.262 42.98 199.166 43.02 199.126 43.02C199.07 43.02 199.01 42.98 198.946 42.9C198.882 42.82 198.826 42.732 198.778 42.636C198.73 42.532 198.706 42.46 198.706 42.42C198.706 42.316 198.81 42.204 199.018 42.084C199.226 41.964 199.502 41.864 199.846 41.784C200.19 41.696 200.562 41.652 200.962 41.652C201.458 41.652 201.882 41.728 202.234 41.88C202.586 42.024 202.854 42.236 203.038 42.516C203.23 42.796 203.326 43.136 203.326 43.536V46.224C203.326 46.552 203.338 46.824 203.362 47.04C203.386 47.256 203.41 47.42 203.434 47.532C203.458 47.644 203.47 47.712 203.47 47.736C203.47 47.792 203.442 47.84 203.386 47.88C203.338 47.912 203.278 47.94 203.206 47.964C203.134 47.98 203.062 47.992 202.99 48C202.918 48.008 202.862 48.012 202.822 48.012C202.726 48.012 202.65 47.968 202.594 47.88C202.546 47.784 202.506 47.672 202.474 47.544C202.45 47.408 202.426 47.284 202.402 47.172C202.25 47.34 202.074 47.492 201.874 47.628C201.674 47.764 201.45 47.872 201.202 47.952C200.962 48.032 200.69 48.072 200.386 48.072ZM200.434 47.196C200.874 47.196 201.238 47.112 201.526 46.944C201.814 46.776 202.078 46.584 202.318 46.368V44.952C202.006 44.952 201.682 44.964 201.346 44.988C201.01 45.004 200.694 45.048 200.398 45.12C200.102 45.192 199.862 45.316 199.678 45.492C199.502 45.66 199.414 45.9 199.414 46.212C199.414 46.532 199.498 46.776 199.666 46.944C199.842 47.112 200.098 47.196 200.434 47.196ZM207.321 50.544C206.849 50.544 206.429 50.492 206.061 50.388C205.693 50.292 205.405 50.128 205.197 49.896C204.989 49.664 204.885 49.356 204.885 48.972C204.885 48.62 204.985 48.312 205.185 48.048C205.385 47.784 205.633 47.588 205.929 47.46L205.941 47.436C205.805 47.324 205.693 47.188 205.605 47.028C205.525 46.868 205.485 46.676 205.485 46.452C205.485 46.196 205.541 45.976 205.653 45.792C205.765 45.6 205.925 45.436 206.133 45.3C205.789 45.132 205.529 44.9 205.353 44.604C205.185 44.3 205.101 43.968 205.101 43.608C205.101 43.24 205.189 42.912 205.365 42.624C205.549 42.328 205.817 42.092 206.169 41.916C206.521 41.74 206.953 41.652 207.465 41.652C207.593 41.652 207.717 41.66 207.837 41.676C207.957 41.684 208.069 41.7 208.173 41.724H210.357C210.517 41.724 210.597 41.844 210.597 42.084V42.228C210.597 42.468 210.517 42.588 210.357 42.588C210.261 42.588 210.117 42.58 209.925 42.564C209.733 42.548 209.569 42.528 209.433 42.504L209.421 42.528C209.581 42.704 209.685 42.876 209.733 43.044C209.789 43.212 209.817 43.4 209.817 43.608C209.817 43.976 209.725 44.308 209.541 44.604C209.365 44.9 209.101 45.136 208.749 45.312C208.405 45.488 207.973 45.576 207.453 45.576C207.109 45.576 206.841 45.632 206.649 45.744C206.465 45.856 206.373 46.044 206.373 46.308C206.373 46.548 206.465 46.724 206.649 46.836C206.833 46.94 207.065 47.012 207.345 47.052C207.633 47.084 207.933 47.12 208.245 47.16C208.605 47.2 208.929 47.276 209.217 47.388C209.513 47.492 209.745 47.652 209.913 47.868C210.089 48.076 210.177 48.364 210.177 48.732C210.177 49.116 210.069 49.44 209.853 49.704C209.645 49.976 209.329 50.184 208.905 50.328C208.481 50.472 207.953 50.544 207.321 50.544ZM207.453 49.716C208.053 49.716 208.497 49.64 208.785 49.488C209.073 49.344 209.217 49.112 209.217 48.792C209.217 48.552 209.121 48.376 208.929 48.264C208.745 48.152 208.509 48.072 208.221 48.024C207.933 47.984 207.637 47.952 207.333 47.928C207.029 47.896 206.761 47.844 206.529 47.772C206.337 47.86 206.169 47.984 206.025 48.144C205.889 48.304 205.821 48.516 205.821 48.78C205.821 49.116 205.945 49.356 206.193 49.5C206.449 49.644 206.869 49.716 207.453 49.716ZM207.453 44.736C207.837 44.736 208.165 44.656 208.437 44.496C208.717 44.336 208.857 44.044 208.857 43.62C208.857 43.188 208.717 42.892 208.437 42.732C208.165 42.572 207.837 42.492 207.453 42.492C207.069 42.492 206.741 42.572 206.469 42.732C206.197 42.892 206.061 43.188 206.061 43.62C206.061 44.044 206.197 44.336 206.469 44.496C206.741 44.656 207.069 44.736 207.453 44.736ZM213.368 48.072C213.216 48.072 213.052 48.048 212.876 48C212.7 47.96 212.532 47.884 212.372 47.772C212.212 47.652 212.08 47.484 211.976 47.268C211.872 47.044 211.82 46.76 211.82 46.416V39.24C211.82 39.064 211.98 38.976 212.3 38.976H212.348C212.668 38.976 212.828 39.064 212.828 39.24V46.32C212.828 46.68 212.892 46.92 213.02 47.04C213.148 47.152 213.3 47.208 213.476 47.208C213.652 47.208 213.768 47.2 213.824 47.184C213.88 47.16 213.936 47.148 213.992 47.148C214.048 47.148 214.092 47.188 214.124 47.268C214.164 47.348 214.192 47.436 214.208 47.532C214.232 47.62 214.244 47.68 214.244 47.712C214.244 47.816 214.192 47.896 214.088 47.952C213.992 48 213.876 48.032 213.74 48.048C213.604 48.064 213.48 48.072 213.368 48.072ZM217.6 48.072C216.608 48.072 215.868 47.812 215.38 47.292C214.9 46.772 214.66 45.976 214.66 44.904C214.66 44.192 214.764 43.596 214.972 43.116C215.188 42.636 215.504 42.272 215.92 42.024C216.336 41.776 216.848 41.652 217.456 41.652C218.008 41.652 218.464 41.772 218.824 42.012C219.192 42.252 219.468 42.604 219.652 43.068C219.836 43.532 219.928 44.104 219.928 44.784C219.928 44.832 219.904 44.896 219.856 44.976C219.816 45.048 219.764 45.116 219.7 45.18C219.636 45.244 219.58 45.276 219.532 45.276H215.74C215.788 45.94 215.96 46.428 216.256 46.74C216.552 47.052 216.996 47.208 217.588 47.208C217.94 47.208 218.236 47.168 218.476 47.088C218.724 47 218.92 46.916 219.064 46.836C219.208 46.748 219.3 46.704 219.34 46.704C219.396 46.704 219.456 46.744 219.52 46.824C219.584 46.904 219.64 46.992 219.688 47.088C219.736 47.184 219.76 47.256 219.76 47.304C219.76 47.376 219.704 47.456 219.592 47.544C219.48 47.632 219.324 47.716 219.124 47.796C218.932 47.876 218.704 47.944 218.44 48C218.184 48.048 217.904 48.072 217.6 48.072ZM215.74 44.412H218.86C218.86 43.78 218.74 43.308 218.5 42.996C218.26 42.676 217.9 42.516 217.42 42.516C216.9 42.516 216.5 42.676 216.22 42.996C215.94 43.308 215.78 43.78 215.74 44.412ZM221.981 50.496C221.661 50.496 221.501 50.408 221.501 50.232V43.548C221.501 43.22 221.489 42.948 221.465 42.732C221.441 42.516 221.417 42.352 221.393 42.24C221.369 42.12 221.357 42.052 221.357 42.036C221.357 41.98 221.381 41.936 221.429 41.904C221.485 41.864 221.549 41.836 221.621 41.82C221.693 41.796 221.765 41.78 221.837 41.772C221.909 41.764 221.965 41.76 222.005 41.76C222.101 41.76 222.173 41.804 222.221 41.892C222.277 41.98 222.317 42.088 222.341 42.216C222.373 42.336 222.401 42.448 222.425 42.552C222.721 42.248 223.025 42.024 223.337 41.88C223.657 41.728 223.989 41.652 224.333 41.652C224.829 41.652 225.249 41.792 225.593 42.072C225.945 42.352 226.209 42.736 226.385 43.224C226.569 43.704 226.661 44.252 226.661 44.868C226.661 45.908 226.433 46.704 225.977 47.256C225.521 47.8 224.937 48.072 224.225 48.072C223.857 48.072 223.537 48.016 223.265 47.904C222.993 47.784 222.741 47.636 222.509 47.46V50.232C222.509 50.408 222.349 50.496 222.029 50.496H221.981ZM223.997 47.184C224.533 47.184 224.933 46.992 225.197 46.608C225.469 46.216 225.605 45.664 225.605 44.952C225.605 44.176 225.477 43.58 225.221 43.164C224.965 42.74 224.601 42.528 224.129 42.528C223.865 42.528 223.589 42.6 223.301 42.744C223.021 42.88 222.757 43.084 222.509 43.356V46.644C222.725 46.82 222.957 46.956 223.205 47.052C223.461 47.14 223.725 47.184 223.997 47.184ZM229.988 48.072C229.404 48.072 228.916 47.928 228.524 47.64C228.132 47.344 227.936 46.888 227.936 46.272C227.936 45.768 228.056 45.372 228.296 45.084C228.536 44.788 228.852 44.572 229.244 44.436C229.636 44.292 230.064 44.2 230.528 44.16C231 44.12 231.464 44.096 231.92 44.088V43.524C231.92 43.252 231.824 43.016 231.632 42.816C231.44 42.616 231.096 42.516 230.6 42.516C230.24 42.516 229.924 42.56 229.652 42.648C229.388 42.728 229.176 42.812 229.016 42.9C228.864 42.98 228.768 43.02 228.728 43.02C228.672 43.02 228.612 42.98 228.548 42.9C228.484 42.82 228.428 42.732 228.38 42.636C228.332 42.532 228.308 42.46 228.308 42.42C228.308 42.316 228.412 42.204 228.62 42.084C228.828 41.964 229.104 41.864 229.448 41.784C229.792 41.696 230.164 41.652 230.564 41.652C231.06 41.652 231.484 41.728 231.836 41.88C232.188 42.024 232.456 42.236 232.64 42.516C232.832 42.796 232.928 43.136 232.928 43.536V46.224C232.928 46.552 232.94 46.824 232.964 47.04C232.988 47.256 233.012 47.42 233.036 47.532C233.06 47.644 233.072 47.712 233.072 47.736C233.072 47.792 233.044 47.84 232.988 47.88C232.94 47.912 232.88 47.94 232.808 47.964C232.736 47.98 232.664 47.992 232.592 48C232.52 48.008 232.464 48.012 232.424 48.012C232.328 48.012 232.252 47.968 232.196 47.88C232.148 47.784 232.108 47.672 232.076 47.544C232.052 47.408 232.028 47.284 232.004 47.172C231.852 47.34 231.676 47.492 231.476 47.628C231.276 47.764 231.052 47.872 230.804 47.952C230.564 48.032 230.292 48.072 229.988 48.072ZM230.036 47.196C230.476 47.196 230.84 47.112 231.128 46.944C231.416 46.776 231.68 46.584 231.92 46.368V44.952C231.608 44.952 231.284 44.964 230.948 44.988C230.612 45.004 230.296 45.048 230 45.12C229.704 45.192 229.464 45.316 229.28 45.492C229.104 45.66 229.016 45.9 229.016 46.212C229.016 46.532 229.1 46.776 229.268 46.944C229.444 47.112 229.7 47.196 230.036 47.196ZM235.567 50.496C235.303 50.496 235.171 50.432 235.171 50.304C235.171 50.288 235.171 50.268 235.171 50.244C235.179 50.228 235.199 50.18 235.231 50.1L236.395 47.28V48.06L234.139 42.06C234.131 42.044 234.123 42.02 234.115 41.988C234.107 41.956 234.103 41.928 234.103 41.904C234.103 41.768 234.275 41.7 234.619 41.7H234.715C234.835 41.7 234.939 41.716 235.027 41.748C235.115 41.772 235.171 41.82 235.195 41.892L236.419 45.144C236.491 45.344 236.559 45.548 236.623 45.756C236.687 45.964 236.747 46.164 236.803 46.356H236.827C236.891 46.172 236.955 45.972 237.019 45.756C237.083 45.532 237.151 45.328 237.223 45.144L238.423 41.892C238.447 41.82 238.503 41.772 238.591 41.748C238.679 41.716 238.787 41.7 238.915 41.7H238.951C239.271 41.7 239.431 41.768 239.431 41.904C239.431 41.944 239.419 42 239.395 42.072L236.311 50.244C236.279 50.332 236.211 50.396 236.107 50.436C236.011 50.476 235.891 50.496 235.747 50.496H235.567Z" fill="currentColor"/>
</svg>
