<svg width="183" height="84" viewBox="0 0 183 84" fill="none" xmlns="http://www.w3.org/2000/svg">
<circle cx="113.124" cy="55.1677" r="11.1677" transform="rotate(90 113.124 55.1677)" fill="#00BE00"/>
<circle cx="43.1243" cy="21.1677" r="11.1677" transform="rotate(90 43.1243 21.1677)" fill="#00BE00"/>
<circle cx="75.5217" cy="38.1863" r="5.76398" transform="rotate(90 75.5217 38.1863)" fill="#00BE00"/>
<circle cx="176.528" cy="14.41" r="5.76398" transform="rotate(90 176.528 14.41)" fill="#00BE00"/>
<circle cx="8.64603" cy="74.646" r="8.64596" transform="rotate(90 8.64603 74.646)" fill="#00BE00"/>
<path d="M121.646 27C121.646 27 113 13.421 113 8.64596C113 3.87093 116.871 -5.8665e-07 121.646 -3.77927e-07C126.421 -1.69204e-07 130.292 3.87093 130.292 8.64596C130.292 13.421 121.646 27 121.646 27Z" fill="#00BE00"/>
</svg>
