<svg width="462" height="511" viewBox="0 0 462 511" fill="none" xmlns="http://www.w3.org/2000/svg">
<circle cx="281.514" cy="331.5" r="179.5" fill="#00BE00"/>
<rect x="53.0135" y="65" width="301" height="410" rx="32" fill="#E1E1E1"/>
<path d="M4.9995 28L4.99951 18.0001L170.647 186.098L165.661 191.011L4.9995 28Z" fill="#28397A"/>
<path d="M4.9995 141L4.99951 131L170.647 299.098L165.661 304.011L4.9995 141Z" fill="#28397A"/>
<path d="M4.9995 83L4.99951 73.0001L170.647 241.098L165.661 246.011L4.9995 83Z" fill="#28397A"/>
<path d="M4.9995 196L4.99951 186L170.647 354.098L165.661 359.011L4.9995 196Z" fill="#28397A"/>
<path d="M102.014 40C102.014 22.3269 116.34 8 134.014 8H371.014C388.687 8 403.014 22.3269 403.014 40V386C403.014 403.673 388.687 418 371.014 418H134.014C116.34 418 102.014 403.673 102.014 386V40Z" fill="white"/>
<path fill-rule="evenodd" clip-rule="evenodd" d="M134.014 0H371.014C393.105 0 411.014 17.9086 411.014 40V386C411.014 408.091 393.105 426 371.014 426H134.014C111.922 426 94.0135 408.091 94.0135 386V40C94.0135 17.9086 111.922 0 134.014 0ZM134.014 8C116.34 8 102.014 22.3269 102.014 40V386C102.014 403.673 116.34 418 134.014 418H371.014C388.687 418 403.014 403.673 403.014 386V40C403.014 22.3269 388.687 8 371.014 8H134.014Z" fill="#F1F1F1"/>
<path d="M66.3354 313.168C66.3354 319.335 55.1677 335.5 55.1677 335.5C55.1677 335.5 44 319.335 44 313.168C44 307 49 302 55.1677 302C61.3355 302 66.3354 307 66.3354 313.168Z" fill="#00BE00"/>
<circle cx="21.1677" cy="383.168" r="11.1677" fill="#00BE00"/>
<circle cx="38.1863" cy="350.77" r="5.76398" fill="#00BE00"/>
<circle cx="14.41" cy="249.764" r="5.76398" fill="#00BE00"/>
<circle cx="74.646" cy="417.646" r="8.64596" fill="#00BE00"/>
<circle cx="8.64596" cy="304.646" r="8.64596" fill="#00BE00"/>
</svg>
