<svg width="66" height="56" viewBox="0 0 66 56" fill="none" xmlns="http://www.w3.org/2000/svg">
<path d="M33.3527 54.1881C6.82775 44.9605 7.65687 33.8513 8.3895 24.0447C8.79335 18.6358 9.2097 13.066 4.46545 9.07579C7.78732 6.97795 11.9419 5.22678 16.6307 3.9545C21.8753 2.53212 27.5613 1.75303 33.0757 1.70121L33.4009 1.69763L33.6314 1.70121C39.144 1.75303 44.8318 2.53212 50.0763 3.9545C54.7652 5.22499 58.9198 6.97795 62.2416 9.07579C57.4974 13.0642 57.9137 18.6358 58.3176 24.0447C59.0502 33.8531 59.8776 44.9605 33.3544 54.1881H33.3527Z" fill="#00BE00"/>
<path d="M33.317 3.39692C33.317 3.39692 33.3313 3.39692 33.3384 3.39692H33.3527H33.367H33.6154C38.9868 3.45052 44.5245 4.20817 49.6315 5.59303C53.3214 6.5937 56.6594 7.89636 59.4881 9.42953C58.2211 10.943 57.3563 12.6996 56.8702 14.7277C56.1448 17.7601 56.377 20.8729 56.6236 24.1698C56.9757 28.8854 57.3402 33.7637 54.6545 38.3936C53.1642 40.9631 50.8787 43.2861 47.6676 45.4965C44.0527 47.9839 39.2406 50.2997 33.3527 52.3886C27.4648 50.3015 22.6527 47.9857 19.0378 45.4965C15.8267 43.2861 13.5412 40.9631 12.0509 38.3936C10.8519 36.3261 10.1818 34.1389 9.9406 31.5122C9.71723 29.073 9.90308 26.5803 10.0818 24.1698C10.3284 20.8729 10.5607 17.7601 9.83517 14.7277C9.35092 12.6996 8.48427 10.9413 7.21735 9.42953C10.046 7.89636 13.3822 6.5937 17.074 5.59303C22.1809 4.20817 27.7186 3.45052 33.09 3.40049H33.317M33.6476 0C33.5493 0 33.451 0.00178691 33.3527 0.00178691C33.2544 0.00178691 33.1562 0 33.0579 0V0.00536073C22.172 0.107215 9.47422 3.04668 1.48315 9.07036C17.6172 18.3248 -11.9937 40.4539 33.308 55.9696V56C33.3223 55.9946 33.3366 55.9893 33.3527 55.9839C33.367 55.9893 33.3813 55.9946 33.3974 56V55.9696C78.6991 40.4521 49.0882 18.3248 65.2223 9.07036C57.2312 3.0449 44.5334 0.107215 33.6476 0.00536073V0Z" fill="white"/>
<path d="M33.2884 1.392C33.308 1.392 33.3259 1.392 33.3456 1.392H33.3581C33.3581 1.392 33.3652 1.392 33.3706 1.392H33.6333C39.1727 1.44561 44.8854 2.22828 50.155 3.65781C55.044 4.98369 59.3594 6.83136 62.767 9.04713C60.7175 10.6607 59.4202 12.6871 58.8198 15.1959C58.1675 17.9245 58.3891 20.8854 58.6232 24.0214C58.9985 29.0427 59.3862 34.2336 56.3896 39.4014C52.9122 45.4 45.3733 50.3462 33.3527 54.5151C21.3322 50.3462 13.795 45.4 10.3159 39.4014C7.3192 34.2336 7.70696 29.0427 8.08221 24.0214C8.3163 20.8854 8.53787 17.9245 7.88565 15.1959C7.28525 12.6889 5.98795 10.6625 3.93837 9.04713C7.34601 6.83136 11.6614 4.98369 16.5504 3.65781C21.82 2.23006 27.5327 1.4474 33.0722 1.39379L33.2902 1.39022M33.6476 0C33.5493 0 33.451 0.00178691 33.3527 0.00178691C33.2544 0.00178691 33.1562 0 33.0579 0V0.00536073C22.172 0.107215 9.47422 3.04668 1.48315 9.07036C17.6172 18.3248 -11.9937 40.4539 33.308 55.9696V56C33.3223 55.9946 33.3366 55.9893 33.3527 55.9839C33.367 55.9893 33.3813 55.9946 33.3974 56V55.9696C78.6991 40.4521 49.0882 18.3248 65.2223 9.07036C57.2312 3.0449 44.5334 0.107215 33.6476 0.00536073V0Z" fill="#2C3976"/>
<path d="M7.43347 12.2671L20.9765 6.08081L22.6294 6.15407L45.6948 13.861L48.5574 22.8653L53.0747 23.9946L53.9986 32.62L61.1891 33.6278L61.2302 34.6088L54.5114 41.551L46.1326 44.3707L27.9686 44.4226L11.84 41.0846L8.93984 31.2459L9.17034 22.6044L7.43347 12.2671Z" fill="white"/>
<path d="M23.069 21.0105C23.069 20.4423 23.0797 19.9277 23.0672 19.4148C23.0458 18.5839 22.9922 17.7548 22.9939 16.9239C22.9939 16.7577 23.1548 16.495 23.3013 16.4414C24.3859 16.0411 25.4849 15.6838 26.6589 15.2853C26.9394 17.2116 27.2146 19.1093 27.4898 21.0105H23.069Z" fill="#2C3976"/>
<path d="M43.9401 45.4858C40.5521 47.3156 36.7389 48.6237 32.9381 49.6208C32.9381 49.6208 32.8988 52.8658 32.8988 52.8676C38.1273 51.2754 43.513 49.0883 47.9142 45.9111C47.8999 45.9093 47.8856 45.9058 47.8749 45.904C46.5687 45.6467 45.2553 45.5234 43.9401 45.4876V45.4858Z" fill="#2C3976"/>
<path d="M58.5177 9.82087C57.1061 11.4773 56.3127 13.6145 56.0089 15.7427C55.4175 19.8865 55.8231 24.0411 55.4336 28.1349C56.0894 28.4494 56.7201 28.78 57.3152 29.1481C57.8423 23.6641 56.3913 18.0264 58.1622 12.7729C58.5571 11.7758 59.1414 10.8787 59.849 10.0746C60.126 9.80837 60.0509 9.32054 59.6989 9.15793C50.4356 4.49409 43.1593 2.74292 32.9042 2.74292L32.9095 3.79184C42.6732 3.81685 50.0156 5.18384 58.5177 9.82087Z" fill="#2C3976"/>
<path d="M55.1155 30.6777C55.0691 30.9619 55.0173 31.2442 54.9601 31.5212C54.9869 31.5212 55.0155 31.5229 55.0423 31.5247C55.0673 31.2424 55.0905 30.9619 55.1155 30.6795V30.6777Z" fill="#2C3976"/>
<path d="M6.64014 10.1836C6.85993 10.0603 7.07972 9.94056 7.29951 9.82083C7.1369 9.62963 6.96893 9.44558 6.79024 9.26868L6.64014 10.1836Z" fill="#2C3976"/>
<path d="M61.2303 34.6089L57.1597 34.5982L54.9529 36.4244L40.8541 36.562L38.8564 34.8001H31.9875C31.9875 34.8001 32.1966 37.2804 32.3377 38.7599C32.3788 39.1816 32.5343 39.3032 32.9363 39.3425C34.3802 39.4872 38.3918 40.1448 38.3918 40.1448L51.0092 39.5158C51.0092 39.5158 50.8126 40.6952 51.4577 41.9835C49.5814 41.9656 35.0377 41.8013 35.0377 41.8013L35.1414 40.8453C35.1414 40.8453 33.0436 40.52 31.9946 40.3699C31.8267 40.3467 31.5622 40.1519 31.5515 40.0018C31.0404 33.2562 30.3382 30.231 29.3554 29.8004C28.6674 29.4984 27.958 30.097 27.3362 30.7224C25.5618 32.5129 25.2544 38.0076 25.2544 38.0076L22.6687 37.8307V32.4271L25.5618 32.5147L25.7547 31.3782H24.7934V28.6389L23.0905 28.512L23.0815 31.4282H22.6294C22.6294 31.4282 22.6259 16.9167 22.6276 9.98709C22.6276 9.78517 22.6509 9.58146 22.6616 9.38848C24.5539 9.27054 26.507 10.6482 27.0592 12.5156C27.1914 12.9641 27.3701 13.0677 27.8025 13.0856C32 13.2518 45.6895 13.8593 45.6895 13.8593L44.0634 12.051C44.0634 12.051 44.0474 7.71414 44.0474 5.71995V5.07666C43.4952 5.02841 43.0217 4.98732 42.4802 4.94086V11.0199C40.0161 9.58682 37.4054 9.17762 34.6625 9.20264V7.32102C30.6402 6.92969 26.6607 6.54372 22.6241 6.15238C22.6241 5.88435 22.6241 5.67528 22.6241 5.46799C22.6241 5.21425 22.6241 4.82292 22.6241 4.512C25.8316 4.00988 29.191 3.80795 32.9042 3.79723L32.8988 2.74296C29.1356 2.74296 25.7958 2.97525 22.6241 3.49167C22.6241 2.88591 22.6241 2.13541 22.6241 1.57789C22.6241 0.684434 22.4293 0.477153 21.4447 0.382446V3.69895C16.3359 4.66031 11.5935 6.40076 6.1148 9.15975C5.76278 9.32236 5.68773 9.8084 5.9647 10.0747C6.25418 10.4034 6.54188 10.7787 6.78668 11.1414C3.07706 12.646 0 13.8897 0 13.8897C0 13.8897 3.38797 13.1464 7.42818 12.2672C7.84274 12.1761 8.26445 12.0849 8.68974 11.992C12.1814 11.2326 15.9357 10.4231 18.323 9.92098C18.2497 12.8819 18.1854 15.7427 18.0907 18.6036C18.0853 18.7447 17.8334 18.9663 17.6654 19.0003C16.109 19.3166 13.1177 19.8794 10.1407 20.4316C9.60465 20.5317 9.07036 20.6299 8.54322 20.7264C4.90686 21.3983 1.69757 21.9826 1.69757 21.9826C1.69757 21.9826 4.8461 21.6985 8.52534 21.3644C9.05963 21.3161 9.60643 21.2661 10.155 21.216C13.132 20.9462 16.2001 20.6657 18.08 20.4923C17.996 23.9018 17.8352 30.5169 17.8352 30.5169L10.8072 31.3014L8.75764 31.5301L3.63994 32.1019L8.88094 32.2359H8.89345C11.111 43.724 22.3685 49.6029 32.9363 52.9587V49.7119C28.1367 48.3914 23.3156 46.5723 19.3701 43.8348C21.9486 44.4048 25.6958 45.4751 30.5169 46.3025C43.9812 48.6147 62.1827 45.686 57.3616 43.0503C58.8823 40.8113 58.6786 38.919 58.6786 38.919L61.0302 38.6652L61.2249 34.6089H61.2303ZM7.94281 10.6751C7.94281 10.6751 7.93745 10.6768 7.93567 10.6786C7.74268 10.3945 7.51932 10.08 7.29953 9.8227C12.1778 7.16377 16.6665 5.58414 21.4501 4.71392V37.7003L19.8222 37.5466L19.7829 32.4307H20.9462V31.4336C20.7014 31.4104 20.1867 31.4336 20.1867 31.4336C20.1867 31.4336 20.3297 17.3081 20.3976 10.768C20.4012 10.3606 20.3529 9.94957 20.8336 9.73871C20.9086 9.70655 20.9676 9.55109 20.9694 9.45281C20.9783 8.31454 20.9748 7.17628 20.9748 6.08448C19.8883 5.55198 11.7972 9.11508 7.94103 10.6786L7.94281 10.6751ZM18.3659 34.2373L11.5274 33.9531C11.354 33.4546 11.1986 32.8345 11.0645 32.2913L18.4105 32.4807M29.7789 41.3367C29.2642 43.6793 27.6113 45.434 26.4713 41.2402C25.0721 41.2402 16.6719 40.1912 15.0386 39.9929C14.6687 39.5658 14.3167 39.1227 13.9861 38.6634C15.1208 38.7724 25.669 39.6981 26.214 39.6981C26.0978 36.9766 26.5088 34.9324 27.0431 33.8656C27.5774 32.7988 28.4709 32.7916 29.2607 34.3302C30.0505 35.8687 30.2935 38.994 29.7789 41.3367Z" fill="#2C3976"/>
<path d="M57.3133 29.1481C56.7183 28.78 56.0875 28.4476 55.4317 28.1349C55.3906 28.5691 55.3424 29.0016 55.2816 29.434C55.2369 29.8575 55.1815 30.272 55.1154 30.6777C55.0904 30.96 55.0672 31.2423 55.0422 31.5229C55.0154 31.5229 54.9868 31.5211 54.96 31.5193C54.9367 31.5193 54.9135 31.5193 54.8903 31.5175C54.876 31.4335 54.8528 31.3496 54.8492 31.2656C54.7688 28.8675 54.6848 26.4695 54.6151 24.0697C54.5847 23.0029 54.0182 22.6795 52.9586 22.4901C51.6863 22.2631 50.8947 22.1863 49.6082 22.1756C44.192 22.1255 38.7759 22.1756 33.3598 22.1756C33.6511 22.2917 33.9477 22.3203 34.2461 22.3721C35.7882 22.6437 37.3285 22.9171 38.8706 23.1834C39.3817 23.2709 39.5514 23.5479 39.5371 24.0679C39.4907 25.7708 39.4907 27.4737 39.4728 29.1767C39.471 29.4376 39.4728 29.6985 39.4728 29.954C38.7187 29.4751 38.0415 28.9569 37.291 28.5906C36.5316 28.2207 35.7149 27.9526 34.8983 27.7275C33.3097 27.2879 31.698 27.161 30.0844 27.6185C29.157 27.8812 28.3403 28.319 27.7578 29.1713C30.0415 27.9294 31.228 28.9211 31.8766 33.6457C33.4813 33.6457 39.1601 33.6493 39.1601 33.6493L40.9434 34.4034L54.1773 34.2765L55.0511 34.2676L56.5896 33.6493C56.5896 33.6493 56.5986 33.6493 56.6093 33.6493C56.8737 33.6493 60.0133 33.6297 61.1856 33.6297C60.3779 31.5247 58.9894 30.1881 57.3115 29.1499L57.3133 29.1481ZM52.3243 32.5003H42.6624C42.3515 32.5003 42.0978 32.2484 42.0978 31.9357L42.0817 24.763C42.0817 24.4503 42.3336 24.1966 42.6464 24.1966H52.3243C52.637 24.1966 52.8889 24.4503 52.8889 24.7612V31.9339C52.8889 32.2466 52.6352 32.4985 52.3243 32.4985V32.5003Z" fill="#2C3976"/>
<path d="M45.7592 15.757L28.26 15.2013L29.3608 21.0874H47.321L45.7592 15.757Z" fill="#2C3976"/>
<path d="M23.3013 16.4414C23.1548 16.495 22.9957 16.7577 22.9939 16.9239C22.9904 17.7548 23.0458 18.5839 23.0672 19.4148C23.0797 19.9277 23.069 20.4423 23.069 21.0105H27.4898C27.2128 19.1093 26.9377 17.2116 26.6589 15.2853C25.4849 15.6838 24.3859 16.0411 23.3013 16.4414Z" fill="#2C3976"/>
<path d="M43.5363 24.7576H42.7036V31.8445H43.5363V24.7576Z" fill="#2C3976"/>
<path d="M44.9908 24.7576H44.1581V31.8445H44.9908V24.7576Z" fill="#2C3976"/>
<path d="M46.4435 24.7576H45.6108V31.8445H46.4435V24.7576Z" fill="#2C3976"/>
<path d="M47.8981 24.7576H47.0654V31.8445H47.8981V24.7576Z" fill="#2C3976"/>
<path d="M49.3526 24.7576H48.5199V31.8445H49.3526V24.7576Z" fill="#2C3976"/>
<path d="M50.8072 24.7576H49.9745V31.8445H50.8072V24.7576Z" fill="#2C3976"/>
<path d="M52.2618 24.7576H51.4291V31.8445H52.2618V24.7576Z" fill="#2C3976"/>
</svg>
