<svg width="185" height="226" viewBox="0 0 185 226" fill="none" xmlns="http://www.w3.org/2000/svg">
<circle cx="63.5" cy="63.5" r="63.5" transform="matrix(-1 0 0 1 127 36)" fill="#F1F1F1"/>
<path d="M14.7832 38.567L14.7833 33L107 126.581L104.224 129.316L14.7832 38.567Z" fill="#28397A"/>
<path d="M14.7832 101.475L14.7833 95.9076L107 189.488L104.224 192.224L14.7832 101.475Z" fill="#28397A"/>
<path d="M14.7832 134.567L14.7833 129L107 222.581L104.224 225.316L14.7832 134.567Z" fill="#28397A"/>
<path d="M14.7832 5.56697L14.7833 -5.22004e-06L107 93.5809L104.224 96.3161L14.7832 5.56697Z" fill="#28397A"/>
<path d="M14.7832 69.1857L14.7833 63.6188L107 157.2L104.224 159.935L14.7832 69.1857Z" fill="#28397A"/>
<circle cx="115.124" cy="76.1677" r="11.1677" transform="rotate(90 115.124 76.1677)" fill="#00BE00"/>
<circle cx="45.1243" cy="42.1677" r="11.1677" transform="rotate(90 45.1243 42.1677)" fill="#00BE00"/>
<circle cx="77.5217" cy="59.1863" r="5.76398" transform="rotate(90 77.5217 59.1863)" fill="#00BE00"/>
<circle cx="178.528" cy="35.41" r="5.76398" transform="rotate(90 178.528 35.41)" fill="#00BE00"/>
<circle cx="10.646" cy="95.646" r="8.64596" transform="rotate(90 10.646 95.646)" fill="#00BE00"/>
<path d="M123.646 48C123.646 48 115 34.421 115 29.646C115 24.8709 118.871 21 123.646 21C128.421 21 132.292 24.8709 132.292 29.646C132.292 34.421 123.646 48 123.646 48Z" fill="#00BE00"/>
</svg>
