<svg width="463" height="511" viewBox="0 0 463 511" fill="none" xmlns="http://www.w3.org/2000/svg">
<circle cx="282.514" cy="331.5" r="179.5" fill="#28397A"/>
<rect x="54.0135" y="65" width="301" height="410" rx="32" fill="#F1F1F1"/>
<path d="M5.9995 28L5.99951 18.0001L171.647 186.098L166.661 191.011L5.9995 28Z" fill="#28397A"/>
<path d="M5.9995 141L5.99951 131L171.647 299.098L166.661 304.011L5.9995 141Z" fill="#28397A"/>
<path d="M5.9995 83L5.99951 73.0001L171.647 241.098L166.661 246.011L5.9995 83Z" fill="#28397A"/>
<path d="M5.9995 196L5.99951 186L171.647 354.098L166.661 359.011L5.9995 196Z" fill="#28397A"/>
<path d="M103.014 40C103.014 22.3269 117.34 8 135.014 8H372.014C389.687 8 404.014 22.3269 404.014 40V386C404.014 403.673 389.687 418 372.014 418H135.014C117.34 418 103.014 403.673 103.014 386V40Z" fill="white"/>
<path fill-rule="evenodd" clip-rule="evenodd" d="M135.014 0H372.014C394.105 0 412.014 17.9086 412.014 40V386C412.014 408.091 394.105 426 372.014 426H135.014C112.922 426 95.0135 408.091 95.0135 386V40C95.0135 17.9086 112.922 0 135.014 0ZM135.014 8C117.34 8 103.014 22.3269 103.014 40V386C103.014 403.673 117.34 418 135.014 418H372.014C389.687 418 404.014 403.673 404.014 386V40C404.014 22.3269 389.687 8 372.014 8H135.014Z" fill="#F1F1F1"/>
<path d="M66.3354 313.168C66.3354 319.335 55.1677 335.5 55.1677 335.5C55.1677 335.5 44 319.335 44 313.168C44 307 49 302 55.1677 302C61.3355 302 66.3354 307 66.3354 313.168Z" fill="#00BE00"/>
<circle cx="21.1677" cy="383.168" r="11.1677" fill="#00BE00"/>
<circle cx="38.1863" cy="350.77" r="5.76398" fill="#00BE00"/>
<circle cx="14.41" cy="249.764" r="5.76398" fill="#00BE00"/>
<circle cx="74.646" cy="417.646" r="8.64596" fill="#00BE00"/>
<circle cx="8.64596" cy="304.646" r="8.64596" fill="#00BE00"/>
</svg>
